<svg width="32" height="32" viewBox="0 0 32 32" fill="none" xmlns="http://www.w3.org/2000/svg">
<circle cx="16" cy="16" r="15.75" fill="url(#paint0_linear_5287_4408)" stroke="url(#paint1_linear_5287_4408)" stroke-width="0.5"/>
<path d="M19.6896 10.697C21.4646 10.697 22.5047 11.376 23.0647 11.9456C23.7251 12.6174 24.1037 13.5232 24.1037 14.4307C24.1037 15.1021 23.9521 16.0704 23.2289 16.8699C22.7571 17.3916 22.1172 17.7566 21.3172 17.9632L23.4277 21.303H22.8318L20.7905 18.0727C20.4123 18.1336 20.0044 18.1643 19.5665 18.1643H17.1718V21.303H16.6619V10.697H19.6896ZM17.1714 17.6764H19.5661C21.065 17.6764 22.1676 17.2976 22.8431 16.5507C23.4633 15.8647 23.5936 15.0191 23.5936 14.4307C23.5936 13.646 23.2654 12.862 22.6931 12.2799C21.9888 11.5636 20.9502 11.1849 19.6896 11.1849H17.1714V17.6764ZM19.6896 9H14.9644V23H18.8684V19.8614H19.5661C19.6817 19.8614 19.7963 19.8595 19.9095 19.8558L21.8965 23H26.5073L23.7667 18.6631C24.0288 18.4679 24.2694 18.2494 24.4875 18.0082C24.9824 17.4609 25.344 16.8161 25.5621 16.0919C25.7204 15.5668 25.8005 15.0079 25.8005 14.4307C25.8005 13.7531 25.6648 13.0849 25.3973 12.4452C25.1332 11.8134 24.7554 11.2452 24.2747 10.756C23.779 10.2518 23.1859 9.84681 22.5117 9.55238C21.6723 9.18582 20.7226 9 19.6896 9ZM18.8684 12.8819H19.6896C20.2441 12.8819 21.0054 12.984 21.4829 13.4695C21.7419 13.733 21.8965 14.0923 21.8965 14.4307C21.8965 14.7211 21.8424 15.1271 21.5843 15.4124C21.4409 15.5711 21.2372 15.6941 20.9619 15.7887C20.5937 15.9151 20.124 15.9794 19.5661 15.9794H18.8684V12.8819Z" fill="#38261E"/>
<path d="M11.697 12.4696L11.4403 14.3399H12.5098L12.4604 14.7005H11.3909L10.9825 17.6764H12.0521L12.0026 18.0371H10.9331L10.6741 19.925H10.3135L10.5725 18.0371H7.9442L7.6852 19.925H7.32458L7.58359 18.0371H6.51404L6.56346 17.6764H7.63301L8.04136 14.7005H6.97181L7.02124 14.3399H8.09078L8.34746 12.4696H8.70807L8.4514 14.3399H11.0797L11.3363 12.4696H11.697ZM7.99363 17.6764H10.6219L11.0302 14.7005H8.40197L7.99363 17.6764ZM12.7183 11.5786H10.5591L10.3024 13.449H9.4728L9.72947 11.5786H7.57022L7.31355 13.449H6.244L5.94999 15.5914H7.01954L6.85578 16.7855H5.78644L5.49243 18.928H6.56198L6.30276 20.8159H8.46201L8.72101 18.928H9.55065L9.29143 20.8159H11.4507L11.7097 18.928H12.7792L13.0732 16.7855H12.0037L12.1675 15.5914H13.237L13.531 13.449H12.4615L12.7183 11.5786ZM9.179 15.5914H10.0086L9.84487 16.7855H9.01524L9.179 15.5914Z" fill="#38261E"/>
<defs>
<linearGradient id="paint0_linear_5287_4408" x1="16" y1="0" x2="16" y2="32" gradientUnits="userSpaceOnUse">
<stop offset="0.0144231" stop-color="#F8E396"/>
<stop offset="1" stop-color="#B78F4E"/>
</linearGradient>
<linearGradient id="paint1_linear_5287_4408" x1="16" y1="0" x2="16" y2="32" gradientUnits="userSpaceOnUse">
<stop stop-color="#C9AA6E"/>
<stop offset="1" stop-color="#573D24"/>
</linearGradient>
</defs>
</svg>
