<svg width="29" height="32" viewBox="0 0 29 32" fill="none" xmlns="http://www.w3.org/2000/svg">
<g clip-path="url(#clip0_7814_11527)">
<path d="M14.5 32.0002C13.7537 32.0002 13.0074 31.8015 12.3372 31.4195L2.19328 25.5971C0.83771 24.8177 0 23.366 0 21.792V10.1931C0 8.63436 0.83771 7.16732 2.19328 6.38795L12.322 0.580878C13.6623 -0.183209 15.3225 -0.183209 16.6628 0.580878L26.7915 6.40323C28.1471 7.1826 28.9848 8.63436 28.9848 10.2084V21.8072C28.9848 23.366 28.1471 24.833 26.7915 25.6124L16.6628 31.4347C15.9926 31.8168 15.2463 32.0155 14.5 32.0155V32.0002ZM14.5 2.13962C14.1192 2.13962 13.7384 2.23131 13.3881 2.42997L3.25945 8.25232C2.57405 8.64965 2.13235 9.39845 2.13235 10.1931V21.792C2.13235 22.5866 2.55882 23.3354 3.25945 23.7327L13.3881 29.5551C14.0735 29.9524 14.9265 29.9524 15.6119 29.5551L25.7405 23.7327C26.4259 23.3354 26.8676 22.5866 26.8676 21.792V10.1931C26.8676 9.39845 26.4412 8.64965 25.7405 8.25232L15.6119 2.42997C15.2768 2.23131 14.8808 2.13962 14.5 2.13962Z" fill="#1988C6"/>
<path d="M9.09294 15.602L8.95586 16.3202H9.74788V16.9468H8.83401L8.60555 18.1999H7.93538L8.17908 16.9468H7.58506L7.3566 18.1999H6.70166L6.93013 16.9468H6.19904V16.3202H7.05198L7.18906 15.602H6.41227V14.9601H7.29567L7.52414 13.707H8.19431L7.96584 14.9601H8.57509L8.81878 13.707H9.47372L9.23002 14.9601H9.96112V15.602H9.10817H9.09294ZM7.67645 16.3049H8.27046L8.40754 15.5867H7.81353L7.67645 16.3049Z" fill="#1988C6"/>
<path d="M16.4648 9.85645C17.5614 9.85645 18.4905 9.99398 19.2216 10.2691C19.8765 10.483 20.4553 10.9109 20.8666 11.4763C21.2473 12.0723 21.4454 12.76 21.4301 13.4629C21.4301 13.9214 21.354 14.3798 21.1864 14.8077C21.0189 15.2203 20.7752 15.5871 20.4706 15.8927C20.1507 16.2289 19.7852 16.504 19.3739 16.7332L22.9075 22.036H19.1912L16.6171 17.6043H15.7794V22.036H12.5047V9.85645H16.48H16.4648ZM16.4039 12.3474H15.7489V15.1287H16.3582C16.7999 15.1439 17.2263 15.037 17.5919 14.7925C17.9117 14.5632 18.0793 14.1659 18.0793 13.6005C18.0945 13.249 17.9422 12.8975 17.6833 12.6683C17.4243 12.4391 16.9826 12.3321 16.3886 12.3321L16.4039 12.3474Z" fill="#1988C6"/>
</g>
<defs>
<clipPath id="clip0_7814_11527">
<rect width="29" height="32" fill="white"/>
</clipPath>
</defs>
</svg>
