<svg width="165" height="165" viewBox="0 0 165 165" fill="none" xmlns="http://www.w3.org/2000/svg">
<g clip-path="url(#clip0_4984_25960)">
<g filter="url(#filter0_f_4984_25960)">
<ellipse cx="82" cy="147" rx="46" ry="4" fill="url(#paint0_linear_4984_25960)" fill-opacity="0.13"/>
</g>
<circle cx="82" cy="72" r="63" fill="url(#paint1_linear_4984_25960)" stroke="url(#paint2_linear_4984_25960)" stroke-width="2"/>
<g filter="url(#filter1_i_4984_25960)">
<path d="M94.7322 52.3032C101.325 52.3032 105.188 54.8253 107.269 56.9408C109.721 59.4361 111.128 62.8004 111.128 66.1711C111.128 68.6648 110.564 72.2616 107.878 75.2312C106.126 77.1686 103.749 78.5246 100.778 79.292L108.617 91.6968H106.403L98.8214 79.6986C97.4166 79.9247 95.9015 80.039 94.2752 80.039H85.3806V91.6968H83.4865V52.3032H94.7322ZM85.379 78.2268H94.2736C99.841 78.2268 103.936 76.8196 106.445 74.0454C108.749 71.4973 109.233 68.3567 109.233 66.1711C109.233 63.2566 108.014 60.3446 105.888 58.1826C103.272 55.5218 99.4147 54.1154 94.7322 54.1154H85.379V78.2268ZM94.7322 46H77.1817V98H91.6822V86.3422H94.2736C94.7031 86.3422 95.1285 86.3351 95.5493 86.3217L102.93 98H120.055L109.876 81.8913C110.85 81.1665 111.743 80.3549 112.553 79.4591C114.391 77.4263 115.735 75.0311 116.545 72.3412C117.132 70.3911 117.43 68.315 117.43 66.1711C117.43 63.6545 116.926 61.1726 115.932 58.7963C114.951 56.45 113.548 54.3392 111.763 52.5223C109.921 50.6494 107.718 49.1453 105.214 48.0517C102.097 46.6902 98.5693 46 94.7322 46ZM91.6822 60.4186H94.7322C96.7918 60.4186 99.6196 60.7976 101.393 62.6011C102.355 63.5797 102.93 64.9144 102.93 66.1711C102.93 67.2497 102.729 68.7578 101.77 69.8175C101.237 70.4069 100.481 70.8638 99.458 71.2153C98.0902 71.6848 96.3458 71.9236 94.2736 71.9236H91.6822V60.4186Z" fill="url(#paint3_linear_4984_25960)"/>
<path d="M65.0454 58.8869L64.092 65.8339H68.0646L67.881 67.1733H63.9084L62.3917 78.2268H66.3643L66.1807 79.5662H62.2081L61.2461 86.5786H59.9067L60.8687 79.5662H51.1066L50.1446 86.5786H48.8051L49.7671 79.5662H45.7945L45.9781 78.2268H49.9507L51.4674 67.1733H47.4948L47.6784 65.8339H51.651L52.6044 58.8869H53.9438L52.9905 65.8339H62.7526L63.7059 58.8869H65.0454ZM51.2902 78.2268H61.0523L62.569 67.1733H52.8069L51.2902 78.2268ZM68.8391 55.5777H60.8191L59.8657 62.5247H56.7842L57.7376 55.5777H49.7175L48.7641 62.5247H44.7915L43.6995 70.4825H47.6721L47.0639 74.9176H43.092L42 82.8754H45.9726L45.0098 89.8878H53.0299L53.9919 82.8754H57.0734L56.1105 89.8878H64.1306L65.0926 82.8754H69.0652L70.1573 74.9176H66.1847L66.7929 70.4825H70.7655L71.8576 62.5247H67.885L68.8391 55.5777ZM55.693 70.4825H58.7744L58.1662 74.9176H55.0847L55.693 70.4825Z" fill="url(#paint4_linear_4984_25960)"/>
</g>
<g filter="url(#filter2_f_4984_25960)">
<circle cx="123.5" cy="32.5" r="19.5" fill="black" fill-opacity="0.18"/>
</g>
<foreignObject x="95" y="-7" width="61" height="61"><div xmlns="http://www.w3.org/1999/xhtml" style="backdrop-filter:blur(3.5px);clip-path:url(#bgblur_1_4984_25960_clip_path);height:100%;width:100%"></div></foreignObject><circle data-figma-bg-blur-radius="7" cx="125.5" cy="23.5" r="23" fill="url(#paint5_linear_4984_25960)" stroke="url(#paint6_linear_4984_25960)"/>
<path d="M125.5 35.25C124.56 35.25 123.821 34.5114 123.821 33.5714V13.4286C123.821 12.4886 124.56 11.75 125.5 11.75C126.44 11.75 127.179 12.4886 127.179 13.4286V33.5714C127.179 34.5114 126.44 35.25 125.5 35.25Z" fill="white"/>
<path d="M135.571 25.1786H115.429C114.489 25.1786 113.75 24.44 113.75 23.5C113.75 22.56 114.489 21.8214 115.429 21.8214H135.571C136.511 21.8214 137.25 22.56 137.25 23.5C137.25 24.44 136.511 25.1786 135.571 25.1786Z" fill="white"/>
</g>
<defs>
<filter id="filter0_f_4984_25960" x="19" y="126" width="126" height="42" filterUnits="userSpaceOnUse" color-interpolation-filters="sRGB">
<feFlood flood-opacity="0" result="BackgroundImageFix"/>
<feBlend mode="normal" in="SourceGraphic" in2="BackgroundImageFix" result="shape"/>
<feGaussianBlur stdDeviation="8.5" result="effect1_foregroundBlur_4984_25960"/>
</filter>
<filter id="filter1_i_4984_25960" x="42" y="46" width="78.2554" height="52.2" filterUnits="userSpaceOnUse" color-interpolation-filters="sRGB">
<feFlood flood-opacity="0" result="BackgroundImageFix"/>
<feBlend mode="normal" in="SourceGraphic" in2="BackgroundImageFix" result="shape"/>
<feColorMatrix in="SourceAlpha" type="matrix" values="0 0 0 0 0 0 0 0 0 0 0 0 0 0 0 0 0 0 127 0" result="hardAlpha"/>
<feOffset dx="0.7" dy="0.7"/>
<feGaussianBlur stdDeviation="0.1"/>
<feComposite in2="hardAlpha" operator="arithmetic" k2="-1" k3="1"/>
<feColorMatrix type="matrix" values="0 0 0 0 0 0 0 0 0 0 0 0 0 0 0 0 0 0 0.35 0"/>
<feBlend mode="multiply" in2="shape" result="effect1_innerShadow_4984_25960"/>
</filter>
<filter id="filter2_f_4984_25960" x="97" y="6" width="53" height="53" filterUnits="userSpaceOnUse" color-interpolation-filters="sRGB">
<feFlood flood-opacity="0" result="BackgroundImageFix"/>
<feBlend mode="normal" in="SourceGraphic" in2="BackgroundImageFix" result="shape"/>
<feGaussianBlur stdDeviation="3.5" result="effect1_foregroundBlur_4984_25960"/>
</filter>
<clipPath id="bgblur_1_4984_25960_clip_path" transform="translate(-95 7)"><circle cx="125.5" cy="23.5" r="23"/>
</clipPath><linearGradient id="paint0_linear_4984_25960" x1="36" y1="147" x2="128" y2="147" gradientUnits="userSpaceOnUse">
<stop stop-opacity="0"/>
<stop offset="0.5"/>
<stop offset="1" stop-opacity="0"/>
</linearGradient>
<linearGradient id="paint1_linear_4984_25960" x1="58.4616" y1="8" x2="105.538" y2="136" gradientUnits="userSpaceOnUse">
<stop offset="0.0144231" stop-color="#F8E396"/>
<stop offset="1" stop-color="#B78F4E"/>
</linearGradient>
<linearGradient id="paint2_linear_4984_25960" x1="82" y1="8" x2="82" y2="136" gradientUnits="userSpaceOnUse">
<stop stop-color="#C9AA6E"/>
<stop offset="1" stop-color="#573D24"/>
</linearGradient>
<linearGradient id="paint3_linear_4984_25960" x1="81.0277" y1="46" x2="81.0277" y2="98" gradientUnits="userSpaceOnUse">
<stop stop-color="#72513D"/>
<stop offset="0.149038" stop-color="#644535"/>
<stop offset="0.456731" stop-color="#52382C"/>
<stop offset="0.774038" stop-color="#6E4E3B"/>
<stop offset="1" stop-color="#9E7355"/>
</linearGradient>
<linearGradient id="paint4_linear_4984_25960" x1="81.0277" y1="46" x2="81.0277" y2="98" gradientUnits="userSpaceOnUse">
<stop stop-color="#72513D"/>
<stop offset="0.149038" stop-color="#644535"/>
<stop offset="0.456731" stop-color="#52382C"/>
<stop offset="0.774038" stop-color="#6E4E3B"/>
<stop offset="1" stop-color="#9E7355"/>
</linearGradient>
<linearGradient id="paint5_linear_4984_25960" x1="125.5" y1="0" x2="125.5" y2="47" gradientUnits="userSpaceOnUse">
<stop stop-color="#1988C6" stop-opacity="0.5"/>
<stop offset="1" stop-color="#1988C6" stop-opacity="0.9"/>
</linearGradient>
<linearGradient id="paint6_linear_4984_25960" x1="125.5" y1="0" x2="125.5" y2="47" gradientUnits="userSpaceOnUse">
<stop stop-color="white"/>
<stop offset="1" stop-color="white" stop-opacity="0.4"/>
</linearGradient>
<clipPath id="clip0_4984_25960">
<rect width="165" height="165" fill="white"/>
</clipPath>
</defs>
</svg>
