<svg width="140" height="124" viewBox="0 0 140 124" fill="none" xmlns="http://www.w3.org/2000/svg">
<path d="M69.0996 124C103.341 124 131.1 96.2417 131.1 62C131.1 27.7584 103.341 8.41371e-06 69.0996 5.42021e-06C34.8579 2.42671e-06 7.09961 27.7583 7.0996 62C7.0996 96.2417 34.8579 124 69.0996 124Z" fill="url(#paint0_linear_5173_17368)"/>
<path d="M101.31 67.356C103.118 67.3561 104.584 68.8222 104.584 70.6304C104.584 72.4387 103.118 73.9047 101.31 73.9048H88.0686C86.2602 73.9048 84.7942 72.4388 84.7942 70.6304C84.7943 68.8221 86.2603 67.356 88.0686 67.356H101.31ZM101.31 53.9351C103.118 53.9352 104.584 55.4012 104.584 57.2095C104.584 59.0178 103.118 60.4838 101.31 60.4839H88.0686C86.2602 60.4839 84.7942 59.0179 84.7942 57.2095C84.7942 55.4011 86.2602 53.9351 88.0686 53.9351H101.31ZM101.31 40.5132C103.118 40.5133 104.584 41.9793 104.584 43.7876C104.584 45.5959 103.118 47.0619 101.31 47.062H88.0686C86.2602 47.062 84.7942 45.596 84.7942 43.7876C84.7942 41.9792 86.2602 40.5132 88.0686 40.5132H101.31Z" fill="white" fill-opacity="0.2"/>
<rect x="32.3076" y="27.0872" width="19.7898" height="6.54874" rx="3.27437" fill="white"/>
<rect x="32.3075" y="67.3512" width="19.7898" height="6.54874" rx="3.27437" fill="white" fill-opacity="0.2"/>
<rect x="32.3075" y="53.9302" width="19.7898" height="6.54874" rx="3.27437" fill="white" fill-opacity="0.2"/>
<rect x="32.3076" y="40.5084" width="19.7898" height="6.54874" rx="3.27437" fill="white" fill-opacity="0.2"/>
<path d="M75.0667 67.0417C76.8749 67.0418 78.3409 68.508 78.3411 70.3162C78.3411 72.1245 76.875 73.5905 75.0667 73.5906H61.8254C60.0171 73.5905 58.551 72.1245 58.551 70.3162C58.5512 68.508 60.0172 67.0418 61.8254 67.0417H75.0667ZM75.0667 53.6208C76.875 53.6209 78.3411 55.0869 78.3411 56.8953C78.3409 58.7035 76.8749 60.1696 75.0667 60.1697H61.8254C60.0172 60.1696 58.5512 58.7035 58.551 56.8953C58.551 55.0869 60.0171 53.6209 61.8254 53.6208H75.0667ZM75.0637 40.1941C76.8733 40.1941 78.3408 41.6609 78.3411 43.4705C78.3411 45.2802 76.8735 46.7478 75.0637 46.7478H61.8284C60.0186 46.7478 58.551 45.2802 58.551 43.4705C58.5513 41.6609 60.0188 40.1941 61.8284 40.1941H75.0637Z" fill="white" fill-opacity="0.2"/>
<rect x="58.5509" y="27.0872" width="19.7898" height="6.55363" rx="3.27682" fill="white"/>
<mask id="path-9-outside-1_5173_17368" maskUnits="userSpaceOnUse" x="80.5564" y="25.8131" width="58.6898" height="58.6899" fill="black">
<rect fill="white" x="80.5564" y="25.8131" width="58.6898" height="58.6899"/>
<path d="M129.768 76.9831L88.1516 35.3667L86.4218 30.0392C86.3084 29.6928 86.6371 29.3641 86.9846 29.4764L92.312 31.2062L133.928 72.8226L129.768 76.9831ZM131.941 82.6158L118.775 69.4494L119.607 68.6166L131.942 80.9509L132.838 80.0546L130.651 77.8677L134.813 73.7058L137.832 76.7249L131.941 82.6158Z"/>
</mask>
<path d="M129.768 76.9831L88.1516 35.3667L86.4218 30.0392C86.3084 29.6928 86.6371 29.3641 86.9846 29.4764L92.312 31.2062L133.928 72.8226L129.768 76.9831ZM131.941 82.6158L118.775 69.4494L119.607 68.6166L131.942 80.9509L132.838 80.0546L130.651 77.8677L134.813 73.7058L137.832 76.7249L131.941 82.6158Z" fill="white"/>
<path d="M129.768 76.9831L129.061 77.6902L129.768 78.3973L130.475 77.6902L129.768 76.9831ZM88.1516 35.3667L87.2005 35.6755L87.2746 35.904L87.4445 36.0738L88.1516 35.3667ZM86.4218 30.0392L87.3729 29.7304L87.3722 29.7281L86.4218 30.0392ZM86.9846 29.4764L87.2934 28.5253L87.2922 28.5249L86.9846 29.4764ZM92.312 31.2062L93.0192 30.4991L92.8493 30.3293L92.6209 30.2551L92.312 31.2062ZM133.928 72.8226L134.636 73.5298L135.343 72.8226L134.636 72.1155L133.928 72.8226ZM131.941 82.6158L131.234 83.3229L131.941 84.03L132.648 83.3229L131.941 82.6158ZM118.775 69.4494L118.068 68.7423L117.36 69.4494L118.068 70.1565L118.775 69.4494ZM119.607 68.6166L120.315 67.9095L119.607 67.2024L118.9 67.9095L119.607 68.6166ZM131.942 80.9509L131.235 81.658L131.942 82.3651L132.649 81.658L131.942 80.9509ZM132.838 80.0546L133.545 80.7617L134.252 80.0546L133.545 79.3475L132.838 80.0546ZM130.651 77.8677L129.944 77.1606L129.237 77.8677L129.944 78.5748L130.651 77.8677ZM134.813 73.7058L135.52 72.9987L134.813 72.2916L134.106 72.9987L134.813 73.7058ZM137.832 76.7249L138.539 77.432L139.246 76.7249L138.539 76.0177L137.832 76.7249ZM129.768 76.9831L130.475 76.276L88.8587 34.6596L88.1516 35.3667L87.4445 36.0738L129.061 77.6902L129.768 76.9831ZM88.1516 35.3667L89.1027 35.0579L87.3729 29.7304L86.4218 30.0392L85.4707 30.348L87.2005 35.6755L88.1516 35.3667ZM86.4218 30.0392L87.3722 29.7281C87.5147 30.1636 87.1022 30.5654 86.6769 30.4279L86.9846 29.4764L87.2922 28.5249C86.172 28.1627 85.1021 29.222 85.4714 30.3503L86.4218 30.0392ZM86.9846 29.4764L86.6758 30.4276L92.0032 32.1573L92.312 31.2062L92.6209 30.2551L87.2934 28.5253L86.9846 29.4764ZM92.312 31.2062L91.6049 31.9133L133.221 73.5298L133.928 72.8226L134.636 72.1155L93.0192 30.4991L92.312 31.2062ZM133.928 72.8226L133.221 72.1155L129.061 76.276L129.768 76.9831L130.475 77.6902L134.636 73.5298L133.928 72.8226ZM131.941 82.6158L132.648 81.9087L119.482 68.7423L118.775 69.4494L118.068 70.1565L131.234 83.3229L131.941 82.6158ZM118.775 69.4494L119.482 70.1565L120.315 69.3237L119.607 68.6166L118.9 67.9095L118.068 68.7423L118.775 69.4494ZM119.607 68.6166L118.9 69.3237L131.235 81.658L131.942 80.9509L132.649 80.2438L120.315 67.9095L119.607 68.6166ZM131.942 80.9509L132.649 81.658L133.545 80.7617L132.838 80.0546L132.131 79.3475L131.235 80.2438L131.942 80.9509ZM132.838 80.0546L133.545 79.3475L131.358 77.1606L130.651 77.8677L129.944 78.5748L132.131 80.7617L132.838 80.0546ZM130.651 77.8677L131.358 78.5748L135.52 74.4129L134.813 73.7058L134.106 72.9987L129.944 77.1606L130.651 77.8677ZM134.813 73.7058L134.106 74.4129L137.125 77.432L137.832 76.7249L138.539 76.0177L135.52 72.9987L134.813 73.7058ZM137.832 76.7249L137.125 76.0177L131.234 81.9087L131.941 82.6158L132.648 83.3229L138.539 77.432L137.832 76.7249Z" fill="url(#paint1_linear_5173_17368)" mask="url(#path-9-outside-1_5173_17368)"/>
<path d="M15.2773 71.7663C15.2773 69.1774 17.376 67.0787 19.9649 67.0787H54.7695C57.3583 67.0787 59.4571 69.1774 59.4571 71.7663V80.0337H15.2773V71.7663Z" fill="#687181"/>
<path fill-rule="evenodd" clip-rule="evenodd" d="M60.4622 74.8768V71.5854C60.4741 70.1306 59.9136 68.7592 58.8881 67.7276C57.8625 66.6961 56.497 66.1296 55.0422 66.1296H22.0696C17.5141 66.1296 14.3301 68.2583 14.3301 71.3052V109.18C14.3301 110.772 15.1648 112.322 16.6317 113.425C18.2356 114.636 20.4895 115.28 23.1548 115.28H63.038C66.0253 115.28 68.464 112.841 68.464 109.848V80.3028C68.464 77.3096 66.0313 74.8768 63.038 74.8768H22.0696C18.3966 74.8768 15.9281 73.416 15.9281 71.3052C15.9281 69.1944 18.4562 67.7276 22.0696 67.7276H55.0422C56.0677 67.7276 57.0277 68.1271 57.7552 68.8546C58.4766 69.582 58.8761 70.548 58.8702 71.5735V74.8709H60.4622V74.8768Z" fill="url(#paint2_linear_5173_17368)" stroke="url(#paint3_linear_5173_17368)" stroke-width="0.7" stroke-miterlimit="10"/>
<path d="M69.0992 101.353H58.8527C55.3845 101.353 52.5724 98.5405 52.5724 95.0723C52.5724 91.6041 55.3845 88.792 58.8527 88.792H69.0992" fill="url(#paint4_linear_5173_17368)"/>
<path d="M69.0992 101.353H58.8527C55.3845 101.353 52.5724 98.5405 52.5724 95.0723C52.5724 91.6041 55.3845 88.792 58.8527 88.792H69.0992" stroke="url(#paint5_linear_5173_17368)" stroke-width="0.5" stroke-miterlimit="10"/>
<path d="M62.3715 93.4498C62.3715 92.4627 61.5693 91.6605 60.5822 91.6605C59.5952 91.6605 58.793 92.4627 58.793 93.4498C58.793 94.1625 59.2105 94.7738 59.8099 95.0631V97.9707C59.786 98.245 59.962 98.4895 60.1886 98.4895H60.9729C61.1995 98.4895 61.3755 98.248 61.3486 97.9707V95.0631C61.951 94.7738 62.3685 94.1625 62.3685 93.4498H62.3715Z" fill="#272B38"/>
<g filter="url(#filter0_d_5173_17368)">
<path d="M15.2437 93.5163C15.4407 93.5163 15.6479 93.4714 15.8587 93.3781C16.0729 93.2882 16.2526 93.195 16.4046 93.1051C18.8368 91.6299 20.8717 90.3585 22.5059 89.284C24.1401 88.213 25.4425 87.2249 26.4168 86.3197C27.3911 85.4146 28.0821 84.461 28.4932 83.4591C28.9043 82.4572 29.1082 81.2687 29.1082 79.9006V66.4714C29.1082 65.4833 28.9458 64.7647 28.6176 64.3156C28.2894 63.8664 27.6571 63.4691 26.7139 63.1167C25.8779 62.7989 25.0383 62.4707 24.1953 62.1355C23.3523 61.8004 22.499 61.4653 21.6422 61.1336C20.7819 60.7985 19.9251 60.4737 19.0648 60.1524C18.2046 59.8346 17.365 59.5306 16.5462 59.2403C16.3182 59.1643 16.1005 59.0987 15.8967 59.0469C15.6929 58.995 15.4752 58.9674 15.2472 58.9674C15.033 58.9674 14.8257 58.995 14.6184 59.0469C14.4146 59.0987 14.1969 59.1643 13.9689 59.2403C13.1328 59.5444 12.2898 59.8553 11.4364 60.1766C10.5831 60.4979 9.72973 60.8192 8.86946 61.1474C8.0092 61.4757 7.15238 61.8039 6.29212 62.139C5.43185 62.4741 4.59231 62.7989 3.77351 63.1202C2.83032 63.4553 2.19463 63.8492 1.86987 64.3052C1.54165 64.7613 1.37927 65.4833 1.37927 66.4714V79.904C1.37927 81.2722 1.59348 82.4537 2.01843 83.4487C2.44338 84.4437 3.14472 85.3869 4.11554 86.2748C5.08982 87.1627 6.38885 88.1439 8.0161 89.2149C9.64336 90.286 11.6645 91.5815 14.0829 93.1017C14.2349 93.1915 14.418 93.2848 14.6288 93.3746C14.843 93.4645 15.0468 93.5128 15.2437 93.5128V93.5163Z" fill="white"/>
<path d="M15.2464 94.8985C14.8595 94.8985 14.4691 94.8156 14.0856 94.6497C13.8126 94.5323 13.5812 94.4148 13.3739 94.2904C10.9347 92.7565 8.88596 91.4436 7.25871 90.3726C5.57964 89.267 4.20805 88.2305 3.1854 87.2977C2.06948 86.2785 1.25067 85.1661 0.74971 83.9949C0.252207 82.8306 0 81.4555 0 79.9043V66.4717C0 65.1761 0.245297 64.2018 0.74971 63.5005C1.24721 62.806 2.07984 62.2602 3.29596 61.8249L5.7973 60.8506C6.66102 60.5155 7.52128 60.1838 8.38501 59.8556C9.24527 59.5274 10.1021 59.2026 10.9554 58.8847C11.8123 58.5634 12.6587 58.2525 13.4982 57.945L13.5328 57.9312C13.7884 57.8448 14.0372 57.7723 14.2721 57.7101C14.9251 57.5408 15.623 57.5477 16.2414 57.7101C16.4763 57.7723 16.7251 57.8448 16.9808 57.9312C17.8341 58.2318 18.6909 58.5427 19.5443 58.8606C20.408 59.1819 21.2752 59.5101 22.1424 59.8487C23.0026 60.1838 23.8594 60.5189 24.7059 60.854C25.5454 61.1857 26.378 61.5105 27.2107 61.8283C28.413 62.274 29.2421 62.8233 29.7396 63.5039C30.2475 64.2018 30.4963 65.1726 30.4963 66.4717V79.9043C30.4963 81.4452 30.2544 82.8202 29.7777 83.9845C29.294 85.1695 28.4821 86.2958 27.3661 87.3357C26.34 88.2893 24.965 89.3327 23.2721 90.4451C21.631 91.5196 19.565 92.8152 17.1293 94.2904C16.9186 94.4183 16.6836 94.5357 16.4107 94.6532C16.0272 94.819 15.6368 94.9019 15.2499 94.9019L15.2464 94.8985ZM14.4241 60.5465C13.5984 60.8471 12.7658 61.1546 11.9228 61.469C11.0729 61.7868 10.2195 62.1082 9.36274 62.4364C8.50593 62.7611 7.65257 63.0928 6.79576 63.4245L4.23569 64.4195C3.27869 64.7581 3.03339 65.0517 2.99193 65.107C2.95393 65.1623 2.76045 65.4801 2.76045 66.4682V79.9008C2.76045 81.0755 2.93665 82.0843 3.28905 82.9031C3.63454 83.7116 4.22532 84.5027 5.04759 85.2524C5.96313 86.0885 7.21725 87.0352 8.77541 88.0613C10.3854 89.1219 12.4203 90.4244 14.818 91.9342C14.8906 91.9791 15.0184 92.0413 15.1739 92.1069C15.2119 92.1242 15.236 92.1277 15.2464 92.1311C15.2568 92.1311 15.281 92.1242 15.319 92.1069C15.4744 92.0413 15.6023 91.9756 15.699 91.9204C18.1001 90.4659 20.1385 89.1876 21.752 88.1304C23.3136 87.1043 24.5677 86.1576 25.4798 85.3077C26.302 84.5442 26.8859 83.7461 27.2176 82.9342C27.5562 82.1016 27.7289 81.0824 27.7289 79.9008V66.4717C27.7289 65.4905 27.5423 65.183 27.5043 65.1312C27.4629 65.0759 27.2107 64.7788 26.2364 64.416C25.383 64.0913 24.5366 63.7596 23.6867 63.4245C22.8472 63.0928 21.9973 62.7577 21.1404 62.4225C20.2871 62.0909 19.4372 61.7661 18.5838 61.4483C17.7443 61.1373 16.9048 60.8333 16.0859 60.5431C15.9132 60.4844 15.7232 60.4291 15.547 60.3842C15.3777 60.3393 15.1635 60.3323 14.9631 60.3842C14.7938 60.4291 14.6107 60.4809 14.4207 60.5465H14.4241Z" fill="url(#paint6_linear_5173_17368)"/>
<g style="mix-blend-mode:multiply">
<path d="M14.4266 60.5461C13.6009 60.8467 12.7683 61.1542 11.9253 61.4686C11.0754 61.7864 10.222 62.1077 9.36522 62.4359C8.50841 62.7607 7.65506 63.0924 6.79824 63.424L4.23818 64.419C3.28117 64.7576 3.03588 65.0513 2.99442 65.1066C2.95641 65.1618 2.76294 65.4797 2.76294 66.4678V79.9004C2.76294 81.075 2.93914 82.0839 3.29154 82.9027C3.63703 83.7111 4.22781 84.5023 5.05007 85.252C5.96562 86.0881 7.21974 87.0347 8.77789 88.0608C10.3879 89.1215 12.4228 90.424 14.8205 91.9338C14.893 91.9787 15.0209 92.0409 15.1763 92.1065C15.2143 92.1238 15.2385 92.1272 15.2489 92.1307C15.2593 92.1307 15.2834 92.1238 15.3214 92.1065C15.4769 92.0409 15.6047 91.9752 15.7015 91.9199C18.1026 90.4654 20.141 89.1871 21.7544 88.1299C23.316 87.1038 24.5702 86.1572 25.4823 85.3073C26.3045 84.5438 26.8884 83.7457 27.2201 82.9338C27.5586 82.1011 27.7314 81.082 27.7314 79.9004V66.4712C27.7314 65.4901 27.5448 65.1826 27.5068 65.1307C27.4654 65.0755 27.2132 64.7783 26.2389 64.4156C25.3855 64.0908 24.5391 63.7592 23.6892 63.424C22.8496 63.0924 21.9997 62.7572 21.1429 62.4221C20.2896 62.0904 19.4397 61.7657 18.5863 61.4478C17.7468 61.1369 16.9072 60.8329 16.0884 60.5427C15.9157 60.4839 15.7257 60.4286 15.5495 60.3837C15.3802 60.3388 15.166 60.3319 14.9656 60.3837C14.7963 60.4286 14.6132 60.4805 14.4232 60.5461H14.4266Z" fill="url(#paint7_linear_5173_17368)"/>
<path d="M15.0159 60.5769C15.1814 60.5342 15.3609 60.5414 15.4983 60.5779H15.5002C15.672 60.6217 15.8567 60.6754 16.0237 60.7322V60.7312C16.841 61.0209 17.6788 61.3251 18.5168 61.6355C19.3687 61.9528 20.2174 62.2769 21.0696 62.6082V62.6091C21.926 62.9441 22.7761 63.2785 23.6155 63.6101C24.4655 63.9453 25.3128 64.2781 26.1672 64.6033H26.1692C27.0862 64.9447 27.3194 65.2154 27.345 65.2478V65.2488C27.345 65.2488 27.3485 65.2533 27.3538 65.2625C27.359 65.2715 27.3665 65.2857 27.3752 65.3054C27.3928 65.3451 27.4156 65.408 27.4387 65.5007C27.4852 65.6872 27.5305 65.993 27.5305 66.4714V79.9001C27.5305 80.918 27.4009 81.8051 27.1497 82.5486L27.0344 82.8582C26.7164 83.6366 26.1525 84.412 25.3459 85.1609C24.4453 86.0001 23.2013 86.9398 21.6448 87.9626C20.0348 89.0175 17.9998 90.2932 15.6018 91.7458C15.5127 91.7968 15.3936 91.8571 15.2483 91.9187C15.0984 91.8552 14.9843 91.7995 14.926 91.7634H14.925C12.5287 90.2545 10.4959 88.9526 8.88794 87.8933C7.33493 86.8706 6.08981 85.9307 5.18481 85.1042C4.37851 84.3691 3.80756 83.6002 3.47583 82.824V82.823L3.35669 82.5193C3.09655 81.7887 2.96313 80.9117 2.96313 79.9001V66.4675C2.96317 65.5298 3.14211 65.2458 3.15845 65.2214C3.19161 65.1803 3.42658 64.9189 4.30493 64.6082L4.31079 64.6062L6.87036 63.6111C7.72737 63.2793 8.58 62.9482 9.43579 62.6238L9.43677 62.6228L11.9954 61.656C12.8379 61.3418 13.6703 61.0345 14.4954 60.7341L14.4944 60.7322C14.6755 60.6698 14.8517 60.6217 15.0168 60.5779L15.0159 60.5769Z" stroke="black" stroke-opacity="0.22" stroke-width="0.400808" style="mix-blend-mode:multiply"/>
</g>
<path d="M7.9643 74.4606C8.10872 74.4606 8.22578 74.3444 8.2329 74.2001C8.37954 71.2306 10.4124 68.5651 13.4384 67.7542C17.1908 66.7489 21.0473 68.9759 22.0528 72.7281C23.0583 76.4805 20.8319 80.3376 17.0796 81.3432C15.1507 81.86 13.192 81.5218 11.6106 80.5629C11.222 80.3269 11.098 79.8201 11.3337 79.4311C11.5697 79.0423 12.0765 78.9185 12.4655 79.1542C13.6785 79.8897 15.1758 80.1479 16.6529 79.7522C19.5261 78.9823 21.2315 76.0281 20.4619 73.1549C19.6919 70.2817 16.7384 68.5769 13.8652 69.3466C11.5785 69.9594 10.0323 71.9547 9.8842 74.1923C9.87447 74.3392 9.99382 74.46 10.1411 74.46L12.3794 74.4605C12.5982 74.4606 12.7217 74.7117 12.5883 74.8851L9.53803 78.8469C9.43247 78.984 9.22569 78.984 9.12015 78.8469L6.07064 74.8846C5.93717 74.7112 6.06084 74.4601 6.27967 74.4601L7.9643 74.4606Z" fill="#FD284B"/>
</g>
<path d="M121.802 40.0963C101.857 46.0377 113.69 25.0011 98.1809 30.4425" stroke="white" stroke-width="1.12727"/>
<defs>
<filter id="filter0_d_5173_17368" x="0" y="57.5857" width="30.8259" height="37.9755" filterUnits="userSpaceOnUse" color-interpolation-filters="sRGB">
<feFlood flood-opacity="0" result="BackgroundImageFix"/>
<feColorMatrix in="SourceAlpha" type="matrix" values="0 0 0 0 0 0 0 0 0 0 0 0 0 0 0 0 0 0 127 0" result="hardAlpha"/>
<feOffset dx="0.329597" dy="0.659194"/>
<feComposite in2="hardAlpha" operator="out"/>
<feColorMatrix type="matrix" values="0 0 0 0 0.384653 0 0 0 0 0.43181 0 0 0 0 0.483333 0 0 0 1 0"/>
<feBlend mode="normal" in2="BackgroundImageFix" result="effect1_dropShadow_5173_17368"/>
<feBlend mode="normal" in="SourceGraphic" in2="effect1_dropShadow_5173_17368" result="shape"/>
</filter>
<linearGradient id="paint0_linear_5173_17368" x1="69.0996" y1="5.42021e-06" x2="69.0996" y2="124" gradientUnits="userSpaceOnUse">
<stop stop-color="#F2CF7D"/>
<stop offset="1" stop-color="#B88E47"/>
</linearGradient>
<linearGradient id="paint1_linear_5173_17368" x1="134.887" y1="79.6703" x2="85.6662" y2="30.45" gradientUnits="userSpaceOnUse">
<stop stop-color="#C49C53"/>
<stop offset="1" stop-color="#E6C273"/>
</linearGradient>
<linearGradient id="paint2_linear_5173_17368" x1="11.3301" y1="90.7017" x2="68.4581" y2="90.7017" gradientUnits="userSpaceOnUse">
<stop stop-color="#E7E8ED"/>
<stop offset="0.09" stop-color="#EBEBEF"/>
<stop offset="0.25" stop-color="#BFC4D3"/>
<stop offset="0.93" stop-color="#CDD1DD"/>
</linearGradient>
<linearGradient id="paint3_linear_5173_17368" x1="12" y1="108" x2="62" y2="87.4999" gradientUnits="userSpaceOnUse">
<stop offset="0.110577" stop-color="#B0B5BD"/>
<stop offset="0.589745" stop-color="#687181"/>
</linearGradient>
<linearGradient id="paint4_linear_5173_17368" x1="60.8358" y1="88.792" x2="60.8358" y2="101.353" gradientUnits="userSpaceOnUse">
<stop offset="0.274038" stop-color="#E4E7EB"/>
<stop offset="0.850962" stop-color="#D2D8DF"/>
</linearGradient>
<linearGradient id="paint5_linear_5173_17368" x1="60.8358" y1="88.792" x2="60.8358" y2="101.353" gradientUnits="userSpaceOnUse">
<stop stop-color="#9DA7C2"/>
<stop offset="1" stop-color="#676D7F"/>
</linearGradient>
<linearGradient id="paint6_linear_5173_17368" x1="3.38026e-09" y1="94.7224" x2="30.3283" y2="94.7224" gradientUnits="userSpaceOnUse">
<stop offset="0.168269" stop-color="#DADCE2"/>
<stop offset="0.456731" stop-color="#E3E4E9"/>
<stop offset="0.552885" stop-color="#BEC3D0"/>
<stop offset="1" stop-color="#959DB2"/>
</linearGradient>
<linearGradient id="paint7_linear_5173_17368" x1="2.76294" y1="76.239" x2="27.7314" y2="76.239" gradientUnits="userSpaceOnUse">
<stop offset="0.0865385" stop-color="#EFF0F2"/>
<stop offset="0.427885" stop-color="#F5F6F7"/>
<stop offset="0.557692" stop-color="#D9DBE3"/>
<stop offset="1" stop-color="#9099B4"/>
</linearGradient>
</defs>
</svg>
