<svg width="124" height="124" viewBox="0 0 124 124" fill="none" xmlns="http://www.w3.org/2000/svg">
<path d="M62 124C96.2416 124 124 96.2417 124 62C124 27.7584 96.2416 8.41371e-06 62 5.42021e-06C27.7583 2.42671e-06 -2.42671e-06 27.7583 -5.42021e-06 62C-8.41371e-06 96.2417 27.7583 124 62 124Z" fill="url(#paint0_linear_5131_13107)"/>
<g filter="url(#filter0_d_5131_13107)">
<path d="M33.292 43.9587C33.292 40.7741 35.8737 38.1924 39.0583 38.1924H81.872C85.0566 38.1924 87.6383 40.7741 87.6383 43.9587V54.1286H33.292V43.9587Z" fill="#687181"/>
<path fill-rule="evenodd" clip-rule="evenodd" d="M88.8749 47.7851V43.7363C88.8895 41.9466 88.2001 40.2596 86.9385 38.9907C85.6769 37.7218 83.9973 37.025 82.2076 37.025H41.6474C36.0437 37.025 32.127 39.6435 32.127 43.3916V89.9818C32.127 91.9402 33.1538 93.8473 34.9582 95.2042C36.9312 96.6931 39.7037 97.4853 42.9824 97.4853H92.0435C95.7182 97.4853 98.7181 94.4854 98.7181 90.8033V54.4597C98.7181 50.7777 95.7255 47.7851 92.0435 47.7851H41.6474C37.1292 47.7851 34.0927 45.9881 34.0927 43.3916C34.0927 40.7951 37.2026 38.9907 41.6474 38.9907H82.2076C83.4692 38.9907 84.6501 39.4822 85.5449 40.377C86.4324 41.2718 86.9238 42.4601 86.9165 43.7216V47.7778H88.8749V47.7851Z" fill="url(#paint1_linear_5131_13107)" stroke="url(#paint2_linear_5131_13107)" stroke-width="0.861082" stroke-miterlimit="10"/>
<path d="M99.4994 80.3534H86.895C82.6287 80.3534 79.1694 76.8942 79.1694 72.6279C79.1694 68.3616 82.6287 64.9023 86.895 64.9023H99.4994" fill="url(#paint3_linear_5131_13107)"/>
<path d="M99.4994 80.3534H86.895C82.6287 80.3534 79.1694 76.8942 79.1694 72.6279C79.1694 68.3616 82.6287 64.9023 86.895 64.9023H99.4994" stroke="url(#paint4_linear_5131_13107)" stroke-width="0.615059" stroke-miterlimit="10"/>
<path d="M91.2233 70.632C91.2233 69.4178 90.2365 68.431 89.0223 68.431C87.8081 68.431 86.8213 69.4178 86.8213 70.632C86.8213 71.5088 87.3349 72.2608 88.0722 72.6166V76.1932C88.0428 76.5307 88.2593 76.8315 88.5381 76.8315H89.5028C89.7816 76.8315 89.9981 76.5344 89.9651 76.1932V72.6166C90.7061 72.2608 91.2196 71.5088 91.2196 70.632H91.2233Z" fill="#272B38"/>
<g filter="url(#filter1_d_5131_13107)">
<path d="M33.2512 70.7136C33.4934 70.7136 33.7484 70.6583 34.0077 70.5436C34.2712 70.4331 34.4922 70.3183 34.6792 70.2078C37.6711 68.3931 40.1743 66.8292 42.1845 65.5074C44.1947 64.19 45.7969 62.9745 46.9954 61.861C48.1939 60.7475 49.0439 59.5745 49.5496 58.3421C50.0554 57.1096 50.3061 55.6476 50.3061 53.9647V37.4452C50.3061 36.2298 50.1063 35.3458 49.7026 34.7933C49.2989 34.2408 48.5211 33.7521 47.3609 33.3186C46.3324 32.9276 45.2997 32.5238 44.2627 32.1116C43.2257 31.6993 42.176 31.2871 41.122 30.8791C40.0638 30.4669 39.0098 30.0674 37.9516 29.6721C36.8934 29.2811 35.8606 28.9072 34.8534 28.5502C34.5729 28.4567 34.3052 28.3759 34.0544 28.3122C33.8037 28.2484 33.5359 28.2144 33.2554 28.2144C32.9919 28.2144 32.737 28.2484 32.482 28.3122C32.2312 28.3759 31.9635 28.4567 31.683 28.5502C30.6545 28.9242 29.6175 29.3066 28.5678 29.7019C27.5181 30.0971 26.4683 30.4924 25.4101 30.8961C24.3519 31.2999 23.2979 31.7036 22.2397 32.1158C21.1814 32.5281 20.1487 32.9276 19.1415 33.3228C17.9813 33.7351 17.1993 34.2195 16.7998 34.7805C16.396 35.3415 16.1963 36.2298 16.1963 37.4452V53.9689C16.1963 55.6519 16.4598 57.1053 16.9825 58.3293C17.5053 59.5533 18.368 60.7135 19.5622 61.8058C20.7607 62.898 22.3587 64.105 24.3604 65.4224C26.3621 66.7399 28.8483 68.3336 31.8232 70.2036C32.0102 70.3141 32.2355 70.4288 32.4947 70.5393C32.7582 70.6498 33.0089 70.7093 33.2512 70.7093V70.7136Z" fill="white"/>
<path d="M33.2539 72.4139C32.7779 72.4139 32.2977 72.3119 31.8259 72.1079C31.4902 71.9634 31.2054 71.819 30.9504 71.666C27.95 69.779 25.4298 68.164 23.4281 66.8465C21.3626 65.4866 19.6754 64.2116 18.4174 63.0641C17.0447 61.8104 16.0375 60.4419 15.4213 59.0012C14.8093 57.569 14.499 55.8775 14.499 53.9693V37.4456C14.499 35.8519 14.8008 34.6534 15.4213 33.7907C16.0332 32.9365 17.0575 32.265 18.5534 31.7295L21.6304 30.531C22.6929 30.1188 23.7511 29.7108 24.8136 29.307C25.8718 28.9033 26.9258 28.5038 27.9755 28.1128C29.0295 27.7176 30.0707 27.3351 31.1034 26.9568L31.1459 26.9398C31.4604 26.8336 31.7664 26.7443 32.0554 26.6678C32.8587 26.4596 33.7171 26.4681 34.4779 26.6678C34.7669 26.7443 35.0729 26.8336 35.3874 26.9398C36.4371 27.3096 37.4911 27.6921 38.5408 28.0831C39.6033 28.4783 40.67 28.8821 41.7367 29.2985C42.7949 29.7108 43.8489 30.123 44.8902 30.5353C45.9229 30.9433 46.9471 31.3428 47.9713 31.7337C49.4503 32.282 50.4703 32.9577 51.0823 33.795C51.707 34.6534 52.013 35.8477 52.013 37.4456V53.9693C52.013 55.8648 51.7155 57.5562 51.129 58.9885C50.534 60.4462 49.5353 61.8316 48.1626 63.1109C46.9004 64.2838 45.2089 65.5673 43.1264 66.9358C41.1077 68.2575 38.5663 69.8512 35.5701 71.666C35.3109 71.8232 35.0219 71.9677 34.6861 72.1122C34.2144 72.3162 33.7341 72.4182 33.2581 72.4182L33.2539 72.4139ZM32.2424 30.157C31.2267 30.5268 30.2025 30.905 29.1655 31.2918C28.12 31.6827 27.0703 32.078 26.0163 32.4817C24.9623 32.8812 23.9126 33.2892 22.8586 33.6972L19.7094 34.9212C18.5322 35.3377 18.2304 35.6989 18.1794 35.7669C18.1327 35.8349 17.8947 36.2259 17.8947 37.4414V53.9651C17.8947 55.41 18.1115 56.651 18.5449 57.6582C18.9699 58.6527 19.6967 59.6259 20.7081 60.5482C21.8344 61.5767 23.3771 62.7411 25.2938 64.0034C27.2743 65.3081 29.7775 66.9103 32.7269 68.7675C32.8162 68.8228 32.9734 68.8993 33.1646 68.98C33.2114 69.0013 33.2411 69.0055 33.2539 69.0098C33.2666 69.0098 33.2964 69.0013 33.3431 68.98C33.5344 68.8993 33.6916 68.8185 33.8106 68.7505C36.7643 66.9613 39.2718 65.3888 41.2565 64.0884C43.1774 62.8261 44.7202 61.6617 45.8421 60.6162C46.8536 59.6769 47.5719 58.6952 47.9798 57.6965C48.3963 56.6723 48.6088 55.4185 48.6088 53.9651V37.4456C48.6088 36.2387 48.3793 35.8604 48.3326 35.7967C48.2816 35.7287 47.9713 35.3632 46.7729 34.9169C45.7231 34.5174 44.6819 34.1094 43.6364 33.6972C42.6037 33.2892 41.5582 32.877 40.5042 32.4647C39.4545 32.0567 38.409 31.6572 37.3593 31.2663C36.3266 30.8838 35.2939 30.5098 34.2866 30.1528C34.0741 30.0805 33.8404 30.0125 33.6236 29.9573C33.4154 29.902 33.1519 29.8935 32.9054 29.9573C32.6972 30.0125 32.4719 30.0763 32.2382 30.157H32.2424Z" fill="url(#paint5_linear_5131_13107)"/>
<g style="mix-blend-mode:multiply">
<path d="M32.2461 30.1565C31.2304 30.5263 30.2062 30.9045 29.1692 31.2913C28.1237 31.6823 27.074 32.0775 26.02 32.4812C24.966 32.8807 23.9163 33.2887 22.8623 33.6967L19.7132 34.9207C18.5359 35.3372 18.2342 35.6984 18.1832 35.7664C18.1364 35.8344 17.8984 36.2254 17.8984 37.4409V53.9646C17.8984 55.4095 18.1152 56.6505 18.5487 57.6577C18.9737 58.6522 19.7004 59.6254 20.7119 60.5477C21.8381 61.5762 23.3808 62.7406 25.2975 64.0029C27.278 65.3076 29.7812 66.9098 32.7306 68.767C32.8199 68.8223 32.9771 68.8988 33.1684 68.9795C33.2151 69.0008 33.2449 69.005 33.2576 69.0093C33.2704 69.0093 33.3001 69.0008 33.3469 68.9795C33.5381 68.8988 33.6954 68.818 33.8144 68.75C36.7681 66.9608 39.2755 65.3883 41.2602 64.0879C43.1812 62.8256 44.7239 61.6612 45.8459 60.6157C46.8573 59.6764 47.5756 58.6947 47.9836 57.696C48.4001 56.6718 48.6126 55.418 48.6126 53.9646V37.4451C48.6126 36.2382 48.3831 35.8599 48.3363 35.7962C48.2853 35.7282 47.9751 35.3627 46.7766 34.9164C45.7269 34.5169 44.6856 34.109 43.6402 33.6967C42.6074 33.2887 41.562 32.8765 40.508 32.4642C39.4582 32.0562 38.4128 31.6568 37.363 31.2658C36.3303 30.8833 35.2976 30.5093 34.2904 30.1523C34.0779 30.08 33.8441 30.012 33.6274 29.9568C33.4191 29.9015 33.1556 29.893 32.9091 29.9568C32.7009 30.012 32.4756 30.0758 32.2419 30.1565H32.2461Z" fill="url(#paint6_linear_5131_13107)"/>
<path d="M32.9717 30.1943C33.1751 30.1419 33.3956 30.1505 33.5645 30.1953H33.5664C33.6721 30.2222 33.7817 30.2531 33.8906 30.2852L34.2109 30.3857C34.7132 30.5638 35.2217 30.7462 35.7334 30.9316L37.2773 31.4971C38.3256 31.8875 39.3702 32.2867 40.4189 32.6943V32.6934C41.4724 33.1054 42.5173 33.5179 43.5498 33.9258C44.5954 34.338 45.6375 34.7465 46.6885 35.1465L46.6904 35.1475C47.5702 35.475 47.938 35.75 48.0723 35.874L48.1387 35.9443C48.1403 35.9468 48.1435 35.9511 48.1475 35.958C48.1538 35.9692 48.163 35.9865 48.1738 36.0107C48.1955 36.0596 48.2244 36.1375 48.2529 36.252C48.3101 36.4814 48.3662 36.8571 48.3662 37.4453V53.9648C48.3662 55.3954 48.1562 56.6154 47.7549 57.6025C47.3637 58.5602 46.6699 59.5132 45.6777 60.4346V60.4355C44.7083 61.3388 43.4159 62.3369 41.8252 63.415L41.125 63.8818C39.1434 65.1802 36.6385 66.7509 33.6865 68.5391C33.5776 68.6011 33.4326 68.6735 33.2568 68.748C33.1657 68.7094 33.0851 68.6739 33.0186 68.6416L32.8604 68.5576C29.9124 66.7013 27.4117 65.1 25.4336 63.7969C23.5231 62.5387 21.9912 61.3819 20.8779 60.3652C20.01 59.5739 19.3638 58.751 18.9424 57.918L18.7754 57.5605C18.3588 56.5925 18.1446 55.3867 18.1445 53.9648V37.4404C18.1446 36.3041 18.3583 35.9481 18.3838 35.9092C18.42 35.8636 18.7038 35.5394 19.7949 35.1533H19.7959L19.8027 35.1504L22.9512 33.9268C24.0056 33.5186 25.0545 33.111 26.1074 32.7119H26.1084C27.1615 32.3085 28.2107 31.9133 29.2559 31.5225L29.2549 31.5215C30.2912 31.135 31.3152 30.7581 32.3301 30.3887L32.3291 30.3867C32.5521 30.3099 32.7683 30.2483 32.9717 30.1943Z" stroke="black" stroke-opacity="0.22" stroke-width="0.493041" style="mix-blend-mode:multiply"/>
</g>
<path d="M24.2969 47.2732C24.4745 47.2732 24.6185 47.1302 24.6272 46.9528C24.8077 43.2998 27.3079 40.0208 31.0304 39.0233C35.6462 37.7869 40.3905 40.527 41.6273 45.1429C42.8636 49.7585 40.1247 54.5028 35.5092 55.7398C33.1365 56.3755 30.7273 55.9594 28.782 54.7799C28.3036 54.4897 28.1509 53.8664 28.4409 53.3878C28.7311 52.9093 29.3544 52.7567 29.833 53.0467C31.3252 53.9514 33.1675 54.2682 34.9844 53.7814C38.5185 52.8342 40.6164 49.2012 39.6697 45.667C38.7226 42.1326 35.0895 40.035 31.5552 40.9817C28.7421 41.7355 26.8404 44.1909 26.6583 46.9438C26.6464 47.1245 26.7932 47.2732 26.9744 47.2732H29.7271C29.9963 47.2732 30.1483 47.5821 29.9841 47.7954L26.232 52.6693C26.1022 52.838 25.8478 52.838 25.718 52.6693L21.9659 47.7954C21.8017 47.5821 21.9537 47.2732 22.2229 47.2732H24.2969Z" fill="#FD284B"/>
</g>
</g>
<defs>
<filter id="filter0_d_5131_13107" x="2.49902" y="17.5148" width="109" height="95.401" filterUnits="userSpaceOnUse" color-interpolation-filters="sRGB">
<feFlood flood-opacity="0" result="BackgroundImageFix"/>
<feColorMatrix in="SourceAlpha" type="matrix" values="0 0 0 0 0 0 0 0 0 0 0 0 0 0 0 0 0 0 127 0" result="hardAlpha"/>
<feOffset dy="3"/>
<feGaussianBlur stdDeviation="6"/>
<feComposite in2="hardAlpha" operator="out"/>
<feColorMatrix type="matrix" values="0 0 0 0 0 0 0 0 0 0 0 0 0 0 0 0 0 0 0.25 0"/>
<feBlend mode="normal" in2="BackgroundImageFix" result="effect1_dropShadow_5131_13107"/>
<feBlend mode="normal" in="SourceGraphic" in2="effect1_dropShadow_5131_13107" result="shape"/>
</filter>
<filter id="filter1_d_5131_13107" x="14.499" y="26.5148" width="37.9196" height="46.7143" filterUnits="userSpaceOnUse" color-interpolation-filters="sRGB">
<feFlood flood-opacity="0" result="BackgroundImageFix"/>
<feColorMatrix in="SourceAlpha" type="matrix" values="0 0 0 0 0 0 0 0 0 0 0 0 0 0 0 0 0 0 127 0" result="hardAlpha"/>
<feOffset dx="0.405443" dy="0.810886"/>
<feComposite in2="hardAlpha" operator="out"/>
<feColorMatrix type="matrix" values="0 0 0 0 0.384653 0 0 0 0 0.43181 0 0 0 0 0.483333 0 0 0 1 0"/>
<feBlend mode="normal" in2="BackgroundImageFix" result="effect1_dropShadow_5131_13107"/>
<feBlend mode="normal" in="SourceGraphic" in2="effect1_dropShadow_5131_13107" result="shape"/>
</filter>
<linearGradient id="paint0_linear_5131_13107" x1="62" y1="5.42021e-06" x2="62" y2="124" gradientUnits="userSpaceOnUse">
<stop stop-color="#F2CF7D"/>
<stop offset="1" stop-color="#B88E47"/>
</linearGradient>
<linearGradient id="paint1_linear_5131_13107" x1="28.4366" y1="67.2515" x2="98.7108" y2="67.2515" gradientUnits="userSpaceOnUse">
<stop stop-color="#E7E8ED"/>
<stop offset="0.09" stop-color="#EBEBEF"/>
<stop offset="0.25" stop-color="#BFC4D3"/>
<stop offset="0.93" stop-color="#CDD1DD"/>
</linearGradient>
<linearGradient id="paint2_linear_5131_13107" x1="29.2607" y1="88.5304" x2="90.7666" y2="63.313" gradientUnits="userSpaceOnUse">
<stop offset="0.110577" stop-color="#B0B5BD"/>
<stop offset="0.589745" stop-color="#687181"/>
</linearGradient>
<linearGradient id="paint3_linear_5131_13107" x1="89.3344" y1="64.9023" x2="89.3344" y2="80.3534" gradientUnits="userSpaceOnUse">
<stop offset="0.274038" stop-color="#E4E7EB"/>
<stop offset="0.850962" stop-color="#D2D8DF"/>
</linearGradient>
<linearGradient id="paint4_linear_5131_13107" x1="89.3344" y1="64.9023" x2="89.3344" y2="80.3534" gradientUnits="userSpaceOnUse">
<stop stop-color="#9DA7C2"/>
<stop offset="1" stop-color="#676D7F"/>
</linearGradient>
<linearGradient id="paint5_linear_5131_13107" x1="14.499" y1="72.1974" x2="51.8064" y2="72.1974" gradientUnits="userSpaceOnUse">
<stop offset="0.168269" stop-color="#DADCE2"/>
<stop offset="0.456731" stop-color="#E3E4E9"/>
<stop offset="0.552885" stop-color="#BEC3D0"/>
<stop offset="1" stop-color="#959DB2"/>
</linearGradient>
<linearGradient id="paint6_linear_5131_13107" x1="17.8984" y1="49.4607" x2="48.6126" y2="49.4607" gradientUnits="userSpaceOnUse">
<stop offset="0.0865385" stop-color="#EFF0F2"/>
<stop offset="0.427885" stop-color="#F5F6F7"/>
<stop offset="0.557692" stop-color="#D9DBE3"/>
<stop offset="1" stop-color="#9099B4"/>
</linearGradient>
</defs>
</svg>
