<svg width="24" height="24" viewBox="0 0 24 24" fill="none" xmlns="http://www.w3.org/2000/svg">
<path fill-rule="evenodd" clip-rule="evenodd" d="M11.9999 21.5999C17.3018 21.5999 21.5999 17.3018 21.5999 11.9999C21.5999 6.69797 17.3018 2.3999 11.9999 2.3999C6.69797 2.3999 2.3999 6.69797 2.3999 11.9999C2.3999 17.3018 6.69797 21.5999 11.9999 21.5999ZM10.4833 8.37466C11.0494 7.43115 11.6353 7.1999 11.9999 7.1999C12.3645 7.1999 12.9504 7.43115 13.5165 8.37466C13.8575 8.94295 14.5946 9.12723 15.1629 8.78625C15.7312 8.44528 15.9155 7.70816 15.5745 7.13987C14.7347 5.74023 13.478 4.7999 11.9999 4.7999C10.5219 4.7999 9.26511 5.74023 8.42533 7.13987C8.08349 7.7096 7.81697 8.33917 7.62106 8.9999H7.1999C6.53716 8.9999 5.9999 9.53716 5.9999 10.1999C5.9999 10.8626 6.53716 11.3999 7.1999 11.3999H7.21595C7.20521 11.6003 7.1999 11.8006 7.1999 11.9999C7.1999 12.1992 7.20521 12.3995 7.21595 12.5999H7.1999C6.53716 12.5999 5.9999 13.1372 5.9999 13.7999C5.9999 14.4626 6.53716 14.9999 7.1999 14.9999H7.62106C7.81697 15.6606 8.08349 16.2902 8.42533 16.8599C9.26511 18.2596 10.5219 19.1999 11.9999 19.1999C13.478 19.1999 14.7347 18.2596 15.5745 16.8599C15.9155 16.2916 15.7312 15.5545 15.1629 15.2136C14.5946 14.8726 13.8575 15.0569 13.5165 15.6251C12.9504 16.5687 12.3645 16.7999 11.9999 16.7999C11.6353 16.7999 11.0494 16.5687 10.4833 15.6251C10.367 15.4313 10.2612 15.2221 10.1665 14.9999H11.9999C12.6626 14.9999 13.1999 14.4626 13.1999 13.7999C13.1999 13.1372 12.6626 12.5999 11.9999 12.5999H9.62024C9.60676 12.4019 9.5999 12.2016 9.5999 11.9999C9.5999 11.7982 9.60676 11.5979 9.62024 11.3999H11.9999C12.6626 11.3999 13.1999 10.8626 13.1999 10.1999C13.1999 9.53716 12.6626 8.9999 11.9999 8.9999H10.1665C10.2612 8.77775 10.367 8.56846 10.4833 8.37466Z" fill="#1988C6"/>
</svg>
