<svg width="24" height="24" viewBox="0 0 24 24" fill="none" xmlns="http://www.w3.org/2000/svg">
<path fill-rule="evenodd" clip-rule="evenodd" d="M7.20005 2.3999C5.87456 2.3999 4.80005 3.47442 4.80005 4.7999V19.1999C4.80005 20.5254 5.87456 21.5999 7.20005 21.5999H16.8C18.1255 21.5999 19.2 20.5254 19.2 19.1999V8.89696C19.2 8.26044 18.9472 7.64999 18.4971 7.1999L14.4 3.10285C13.95 2.65276 13.3395 2.3999 12.703 2.3999H7.20005ZM8.40005 9.5999C7.73731 9.5999 7.20005 10.1372 7.20005 10.7999C7.20005 11.4626 7.73731 11.9999 8.40005 11.9999H12C12.6628 11.9999 13.2 11.4626 13.2 10.7999C13.2 10.1372 12.6628 9.5999 12 9.5999H8.40005ZM8.40005 13.1999C7.73731 13.1999 7.20005 13.7372 7.20005 14.3999C7.20005 15.0626 7.73731 15.5999 8.40005 15.5999H15.6C16.2628 15.5999 16.8 15.0626 16.8 14.3999C16.8 13.7372 16.2628 13.1999 15.6 13.1999H8.40005ZM8.40005 16.7999C7.73731 16.7999 7.20005 17.3372 7.20005 17.9999C7.20005 18.6626 7.73731 19.1999 8.40005 19.1999H15.6C16.2628 19.1999 16.8 18.6626 16.8 17.9999C16.8 17.3372 16.2628 16.7999 15.6 16.7999H8.40005Z" fill="#1988C6"/>
</svg>
