<svg width="24" height="24" viewBox="0 0 24 24" fill="none" xmlns="http://www.w3.org/2000/svg">
<path fill-rule="evenodd" clip-rule="evenodd" d="M7.20005 2.3999C5.87456 2.3999 4.80005 3.47442 4.80005 4.7999V19.1999C4.80005 20.5254 5.87456 21.5999 7.20005 21.5999H16.8C18.1255 21.5999 19.2 20.5254 19.2 19.1999V8.89696C19.2 8.26044 18.9472 7.64999 18.4971 7.1999L14.4 3.10285C13.95 2.65276 13.3395 2.3999 12.703 2.3999H7.20005ZM9.60005 14.3999C9.60005 13.7372 9.06279 13.1999 8.40005 13.1999C7.73731 13.1999 7.20005 13.7372 7.20005 14.3999V17.9999C7.20005 18.6626 7.73731 19.1999 8.40005 19.1999C9.06279 19.1999 9.60005 18.6626 9.60005 17.9999V14.3999ZM12 10.7999C12.6628 10.7999 13.2 11.3372 13.2 11.9999V17.9999C13.2 18.6626 12.6628 19.1999 12 19.1999C11.3373 19.1999 10.8 18.6626 10.8 17.9999V11.9999C10.8 11.3372 11.3373 10.7999 12 10.7999ZM16.8 9.5999C16.8 8.93716 16.2628 8.3999 15.6 8.3999C14.9373 8.3999 14.4 8.93716 14.4 9.5999V17.9999C14.4 18.6626 14.9373 19.1999 15.6 19.1999C16.2628 19.1999 16.8 18.6626 16.8 17.9999V9.5999Z" fill="#1988C6"/>
</svg>
