<svg width="24" height="24" viewBox="0 0 24 24" fill="none" xmlns="http://www.w3.org/2000/svg">
<path d="M15 2.39209C15.9317 2.3942 16.8529 2.59377 17.7021 2.97705C18.5513 3.36028 19.3098 3.91856 19.9277 4.61572C20.5457 5.31302 21.0096 6.13379 21.2881 7.02295C21.5664 7.91195 21.6538 8.84983 21.5439 9.7749C21.4341 10.7002 21.1293 11.5919 20.6504 12.3911C20.1715 13.1903 19.5287 13.8794 18.7646 14.4126C18.0006 14.9457 17.1321 15.3111 16.2168 15.4849C15.3015 15.6586 14.3594 15.6365 13.4531 15.4204L12.334 16.5396C12.2505 16.6233 12.1512 16.6895 12.042 16.7349C11.9328 16.7802 11.8155 16.8042 11.6973 16.8042H10.7969V17.7046C10.7968 17.8228 10.7738 17.9401 10.7285 18.0493C10.6832 18.1585 10.6159 18.2578 10.5322 18.3413L9.93262 18.9419C9.84918 19.0255 9.74971 19.0919 9.64062 19.1372C9.53147 19.1825 9.41408 19.2055 9.2959 19.2056H8.39453V20.1069C8.39447 20.2251 8.37149 20.3425 8.32617 20.4517C8.28084 20.5608 8.21451 20.6602 8.13086 20.7437L7.53027 21.3442C7.44679 21.4279 7.34742 21.4942 7.23828 21.5396C7.12908 21.5849 7.01179 21.6079 6.89355 21.6079H4.49121C3.9341 21.6078 3.39987 21.3865 3.00586 20.9927C2.61172 20.5985 2.38967 20.0637 2.38965 19.5063V17.104C2.38972 16.8651 2.48502 16.6366 2.6543 16.4673L8.57715 10.5444C8.3432 9.57314 8.33328 8.56143 8.54688 7.58545C8.76048 6.60946 9.19226 5.69446 9.81055 4.90967C10.4289 4.12486 11.2173 3.49028 12.1162 3.0542C13.015 2.61821 14.0011 2.39198 15 2.39209ZM16.3994 6.20264C15.6899 6.20264 15.1143 6.7773 15.1143 7.48682C15.1143 8.19637 15.6899 8.77197 16.3994 8.77197C17.1088 8.7718 17.6836 8.19627 17.6836 7.48682C17.6835 6.77741 17.1088 6.20281 16.3994 6.20264Z" fill="#1988C6"/>
</svg>
