<svg width="20" height="20" viewBox="0 0 20 20" fill="none" xmlns="http://www.w3.org/2000/svg">
<path d="M13.5115 4.95295C15.2008 4.95295 16.1907 5.59918 16.7236 6.14124C17.3521 6.7806 17.7125 7.64264 17.7125 8.5063C17.7125 9.14526 17.5681 10.0669 16.8799 10.8277C16.4309 11.3242 15.8218 11.6716 15.0605 11.8683L17.0691 15.0467H16.502L14.5593 11.9724C14.1993 12.0304 13.8111 12.0596 13.3944 12.0596H11.1153V15.0467H10.63V4.95295H13.5115ZM11.1149 11.5953H13.394C14.8205 11.5953 15.8699 11.2347 16.5127 10.5239C17.103 9.87102 17.2269 9.06632 17.2269 8.5063C17.2269 7.75953 16.9146 7.01337 16.3699 6.4594C15.6997 5.77765 14.7113 5.41728 13.5115 5.41728H11.1149V11.5953ZM13.5115 3.33789H9.01454V16.6618H12.73V13.6747H13.394C13.504 13.6747 13.613 13.6729 13.7208 13.6695L15.6119 16.6618H20L17.3917 12.5343C17.6412 12.3485 17.8701 12.1406 18.0777 11.9111C18.5487 11.3902 18.8929 10.7765 19.1004 10.0872C19.251 9.58758 19.3273 9.05562 19.3273 8.5063C19.3273 7.86148 19.1981 7.22555 18.9435 6.61667C18.6922 6.01546 18.3326 5.47462 17.8752 5.00908C17.4034 4.5292 16.8389 4.14381 16.1973 3.86359C15.3985 3.51474 14.4947 3.33789 13.5115 3.33789ZM12.73 7.03235H13.5115C14.0392 7.03235 14.7638 7.12945 15.2182 7.59156C15.4647 7.8423 15.6119 8.18429 15.6119 8.5063C15.6119 8.78267 15.5604 9.16908 15.3147 9.44061C15.1782 9.59162 14.9844 9.70871 14.7224 9.79875C14.3719 9.91907 13.9249 9.98024 13.394 9.98024H12.73V7.03235Z" fill="white"/>
<path d="M5.90487 6.63989L5.6606 8.41989H6.67849L6.63145 8.76309H5.61356L5.22493 11.5953H6.24283L6.19579 11.9385H5.17789L4.93139 13.7353H4.58819L4.83469 11.9385H2.33336L2.08686 13.7353H1.74366L1.99016 11.9385H0.972268L1.01931 11.5953H2.0372L2.42583 8.76309H1.40793L1.45497 8.41989H2.47286L2.71714 6.63989H3.06034L2.81607 8.41989H5.3174L5.56167 6.63989H5.90487ZM2.3804 11.5953H4.88173L5.27036 8.76309H2.76903L2.3804 11.5953ZM6.87694 5.79198H4.82197L4.5777 7.57198H3.78813L4.03241 5.79198H1.97744L1.73317 7.57198H0.715271L0.435461 9.611H1.45336L1.2975 10.7474H0.27981L0 12.7864H1.01789L0.771193 14.5832H2.82616L3.07266 12.7864H3.86222L3.61552 14.5832H5.67049L5.91699 12.7864H6.93488L7.21469 10.7474H6.1968L6.35265 9.611H7.37054L7.65035 7.57198H6.63246L6.87694 5.79198ZM3.50852 9.611H4.29809L4.14223 10.7474H3.35267L3.50852 9.611Z" fill="white"/>
</svg>
