<svg width="103" height="88" viewBox="0 0 103 88" fill="none" xmlns="http://www.w3.org/2000/svg">
<path fill-rule="evenodd" clip-rule="evenodd" d="M79.5331 22.3047V17.017C79.5523 14.6796 78.6519 12.4764 77.0042 10.8192C75.3566 9.16198 73.1629 8.25195 70.8256 8.25195H13.0339C5.71533 8.25195 0.600006 11.6718 0.600006 16.5668V77.4142C0.600006 79.9719 1.9411 82.4625 4.2976 84.2347C6.87442 86.1793 10.4954 87.2138 14.7773 87.2138H83.6714C88.4706 87.2138 92.3885 83.2959 92.3885 78.4871V31.0219C92.3885 26.2131 88.4802 22.3047 83.6714 22.3047H13.0339C7.13306 22.3047 3.16725 19.9578 3.16725 16.5668C3.16725 13.1757 7.22886 10.8192 13.0339 10.8192H70.8256C72.4732 10.8192 74.0155 11.461 75.1842 12.6297C76.3433 13.7983 76.9851 15.3502 76.9755 16.9978V22.2952H79.5331V22.3047Z" fill="#E7F1F9" stroke="#034C81" stroke-width="1.2" stroke-miterlimit="10"/>
<path d="M93.9429 64.7796H76.776C71.424 64.7796 67.0844 60.44 67.0844 55.088C67.0844 49.7361 71.424 45.3965 76.776 45.3965H93.9429" fill="white" stroke="#034C81" stroke-miterlimit="10"/>
<path d="M80.2475 52.1937C80.2475 50.6705 79.0096 49.4326 77.4864 49.4326C75.9632 49.4326 74.7253 50.6705 74.7253 52.1937C74.7253 53.2936 75.3695 54.237 76.2945 54.6834V59.1702C76.2577 59.5936 76.5292 59.9709 76.879 59.9709H78.0893C78.439 59.9709 78.7105 59.5982 78.6691 59.1702V54.6834C79.5987 54.237 80.2429 53.2936 80.2429 52.1937H80.2475Z" fill="#034C81"/>
<path d="M50.8976 44.0932L39.5044 37.5692C38.3634 36.9157 36.9616 36.9157 35.8206 37.5692L24.4274 44.0932C23.2743 44.7538 22.5629 45.9809 22.5629 47.3096V60.306C22.5629 61.6351 23.2743 62.8622 24.4274 63.5224L35.8206 70.0468C36.9616 70.7003 38.3634 70.7003 39.5044 70.0468L50.8976 63.5224C52.0507 62.8622 52.7621 61.6351 52.7621 60.306V47.3096C52.7621 45.9805 52.0507 44.7534 50.8976 44.0932ZM49.1712 58.4026C49.1712 59.6258 48.5157 60.755 47.4538 61.3612L39.3521 65.9881C38.3052 66.5861 37.0198 66.5861 35.9729 65.9881L27.8712 61.3612C26.8093 60.7546 26.1538 59.6254 26.1538 58.4026V49.213C26.1538 47.9898 26.8093 46.8607 27.8712 46.2544L35.9729 41.6275C37.0198 41.0295 38.3052 41.0295 39.3521 41.6275L47.4538 46.2544C48.5157 46.8611 49.1712 47.9902 49.1712 49.213V58.4026Z" fill="#034C81"/>
<path d="M100.406 5.39281C100.824 4.97435 101.059 4.40676 101.06 3.8149C101.06 3.22304 100.825 2.65539 100.406 2.23683C99.9877 1.81827 99.4201 1.58308 98.8282 1.58301C98.2363 1.58293 97.6687 1.81798 97.2501 2.23643L86.6845 12.8044C86.5007 12.9877 86.3648 13.2133 86.2887 13.4615L85.2429 16.9068C85.2225 16.9753 85.2209 17.048 85.2384 17.1173C85.256 17.1865 85.2919 17.2498 85.3425 17.3003C85.3931 17.3508 85.4564 17.3866 85.5257 17.404C85.595 17.4215 85.6677 17.4198 85.7361 17.3992L89.1823 16.3542C89.4302 16.2788 89.6558 16.1437 89.8393 15.9608L100.406 5.39281Z" stroke="#034C81" stroke-width="1.2" stroke-linecap="round" stroke-linejoin="round"/>
<path d="M95.518 3.95801L98.6846 7.12467" stroke="#034C81" stroke-width="1.2" stroke-linecap="round" stroke-linejoin="round"/>
</svg>
