<svg width="200" height="200" viewBox="0 0 200 200" fill="none" xmlns="http://www.w3.org/2000/svg">
<g clip-path="url(#clip0_5672_4847)">
<mask id="mask0_5672_4847" style="mask-type:alpha" maskUnits="userSpaceOnUse" x="-4" y="5" width="208" height="117">
<rect width="208" height="117" transform="translate(-4 5)" fill="url(#paint0_linear_5672_4847)"/>
</mask>
<g mask="url(#mask0_5672_4847)">
<g opacity="0.5">
<path d="M169.88 -168.5C186.24 -168.5 199.51 -159.97 199.51 -149.46V47.44C199.51 57.96 186.24 66.48 169.88 66.48H30.13C13.77 66.48 0.5 57.95 0.5 47.44V-149.46C0.5 -159.97 13.77 -168.5 30.13 -168.5H169.88Z" stroke="#034C81"/>
<path d="M192.51 47.45V-149.46C192.51 -157.48 182.36 -164 169.88 -164H30.13C17.66 -164 7.5 -157.47 7.5 -149.46V47.44C7.5 55.46 17.65 61.98 30.13 61.98H169.88C182.35 61.98 192.51 55.45 192.51 47.44" stroke="#034C81"/>
<path d="M169.88 -168.5H30.13C13.77 -168.5 0.5 -159.97 0.5 -149.46V71.08C0.5 71.48 0.53 71.88 0.56 72.28C0.57 72.39 0.59 72.51 0.6 72.62C0.64 72.92 0.69 73.23 0.75 73.53C0.77 73.63 0.79 73.73 0.81 73.83C0.9 74.22 1 74.6 1.12 74.98C1.14 75.05 1.17 75.11 1.19 75.18C1.3 75.5 1.42 75.81 1.55 76.12C1.6 76.23 1.65 76.34 1.7 76.45C1.84 76.75 1.98 77.04 2.14 77.33C2.18 77.4 2.22 77.48 2.26 77.55C2.46 77.91 2.68 78.26 2.91 78.6C2.97 78.69 3.03 78.77 3.09 78.86C3.28 79.13 3.47 79.39 3.68 79.65C3.76 79.75 3.84 79.85 3.92 79.95C4.17 80.26 4.43 80.56 4.71 80.85C4.74 80.88 4.76 80.91 4.78 80.93C5.08 81.25 5.4 81.56 5.73 81.87C5.82 81.96 5.92 82.04 6.01 82.13C6.27 82.36 6.54 82.59 6.81 82.82C6.91 82.9 7.01 82.98 7.11 83.06C7.47 83.35 7.85 83.63 8.24 83.91C8.29 83.94 8.34 83.98 8.39 84.01C8.74 84.25 9.1 84.49 9.46 84.72C9.58 84.8 9.71 84.87 9.83 84.95C10.16 85.15 10.5 85.35 10.85 85.54C10.95 85.6 11.05 85.65 11.16 85.71C11.6 85.95 12.06 86.18 12.52 86.4C12.63 86.45 12.73 86.5 12.84 86.55C13.22 86.72 13.6 86.89 13.98 87.05C14.13 87.11 14.27 87.17 14.42 87.23C14.85 87.4 15.28 87.57 15.73 87.73C15.79 87.75 15.84 87.77 15.9 87.79C15.91 87.79 15.93 87.79 15.94 87.8C16.52 88 17.12 88.19 17.72 88.37C17.86 88.41 18 88.45 18.13 88.49C18.74 88.66 19.36 88.83 19.99 88.98C20 88.98 20.01 88.98 20.03 88.98C20.1 89 20.18 89.01 20.25 89.03C20.7 89.13 21.15 89.23 21.6 89.31C21.78 89.34 21.95 89.38 22.13 89.41C22.52 89.48 22.9 89.54 23.3 89.6C23.41 89.62 23.52 89.64 23.63 89.65C23.71 89.66 23.79 89.67 23.86 89.68C24.2 89.73 24.55 89.77 24.9 89.81C25.08 89.83 25.27 89.85 25.45 89.87C25.91 89.92 26.36 89.95 26.83 89.99C26.9 89.99 26.97 90 27.04 90.01C27.04 90.01 27.05 90.01 27.06 90.01C28.07 90.08 29.09 90.11 30.12 90.11H169.87C169.99 90.11 170.11 90.11 170.23 90.11C170.37 90.11 170.51 90.11 170.66 90.1C171.03 90.1 171.39 90.09 171.75 90.07C171.96 90.07 172.17 90.05 172.38 90.04C172.73 90.02 173.07 90 173.41 89.97C173.53 89.97 173.65 89.96 173.77 89.95C173.85 89.95 173.93 89.93 174.02 89.92C174.49 89.88 174.96 89.83 175.42 89.77C175.53 89.76 175.65 89.75 175.76 89.73C176.33 89.66 176.89 89.57 177.45 89.48C177.49 89.48 177.53 89.47 177.57 89.46C177.64 89.45 177.71 89.43 177.78 89.42C178.45 89.3 179.12 89.17 179.77 89.02C179.84 89 179.91 88.99 179.98 88.98C180.66 88.82 181.32 88.65 181.97 88.46C182.04 88.44 182.11 88.42 182.18 88.4C182.24 88.38 182.3 88.36 182.37 88.34C182.96 88.16 183.54 87.98 184.11 87.78C184.19 87.75 184.27 87.72 184.35 87.69C184.86 87.51 185.36 87.31 185.85 87.11C185.97 87.06 186.09 87.01 186.21 86.96C186.75 86.73 187.27 86.49 187.78 86.24C187.88 86.19 187.98 86.14 188.08 86.09C188.53 85.86 188.97 85.63 189.4 85.39C189.49 85.34 189.58 85.29 189.67 85.24C190.15 84.96 190.61 84.68 191.06 84.38C191.16 84.31 191.26 84.25 191.36 84.18C191.77 83.9 192.17 83.62 192.55 83.33C192.6 83.29 192.65 83.26 192.69 83.22C193.1 82.9 193.5 82.57 193.88 82.23C193.97 82.15 194.06 82.07 194.14 81.99C194.52 81.64 194.88 81.29 195.23 80.93C195.23 80.93 195.23 80.93 195.24 80.92C195.62 80.52 195.96 80.11 196.29 79.69C196.35 79.62 196.4 79.55 196.46 79.48C196.77 79.07 197.06 78.66 197.33 78.23C197.35 78.19 197.38 78.16 197.41 78.12C197.45 78.06 197.48 78 197.51 77.94C197.67 77.68 197.81 77.42 197.95 77.16C198 77.06 198.06 76.96 198.11 76.86C198.29 76.51 198.45 76.15 198.59 75.78C198.59 75.78 198.59 75.76 198.6 75.75C198.63 75.69 198.64 75.62 198.67 75.56C198.77 75.3 198.86 75.04 198.94 74.77C198.98 74.65 199.01 74.53 199.04 74.41C199.1 74.19 199.16 73.96 199.21 73.73C199.22 73.67 199.24 73.61 199.25 73.55C199.27 73.47 199.27 73.39 199.29 73.31C199.33 73.11 199.36 72.9 199.39 72.69C199.41 72.55 199.43 72.41 199.44 72.26C199.46 72.05 199.47 71.84 199.48 71.63C199.48 71.54 199.5 71.44 199.5 71.35C199.5 71.25 199.5 71.15 199.5 71.05V-149.46C199.5 -159.98 186.23 -168.5 169.87 -168.5H169.88Z" stroke="#034C81"/>
<path d="M41.93 77.1899C40.55 77.1899 39.43 77.8299 39.43 78.6199C39.43 79.4099 40.55 80.0599 41.93 80.0599C43.31 80.0599 44.43 79.4199 44.43 78.6199C44.43 77.8199 43.31 77.1899 41.93 77.1899Z" fill="#034C81"/>
<path d="M49.11 77.1899C47.72 77.1899 46.61 77.8299 46.61 78.6199C46.61 79.4099 47.73 80.0599 49.11 80.0599C50.49 80.0599 51.61 79.4199 51.61 78.6199C51.61 77.8199 50.49 77.1899 49.11 77.1899Z" fill="#034C81"/>
<path d="M56.29 77.1899C54.9 77.1899 53.79 77.8299 53.79 78.6199C53.79 79.4099 54.91 80.0599 56.29 80.0599C57.67 80.0599 58.78 79.4199 58.78 78.6199C58.78 77.8199 57.66 77.1899 56.29 77.1899Z" fill="#034C81"/>
<path d="M145.98 77.1899C144.6 77.1899 143.48 77.8299 143.48 78.6199C143.48 79.4099 144.6 80.0599 145.98 80.0599C147.36 80.0599 148.48 79.4199 148.48 78.6199C148.48 77.8199 147.36 77.1899 145.98 77.1899Z" fill="#034C81"/>
<path d="M153.16 77.1899C151.77 77.1899 150.66 77.8299 150.66 78.6199C150.66 79.4099 151.78 80.0599 153.16 80.0599C154.54 80.0599 155.66 79.4199 155.66 78.6199C155.66 77.8199 154.54 77.1899 153.16 77.1899Z" fill="#034C81"/>
<path d="M160.35 77.1899C158.96 77.1899 157.85 77.8299 157.85 78.6199C157.85 79.4099 158.97 80.0599 160.35 80.0599C161.73 80.0599 162.84 79.4199 162.84 78.6199C162.84 77.8199 161.72 77.1899 160.35 77.1899Z" fill="#034C81"/>
<path d="M109.48 76H91.28C88.91 76 87 77.1 87 78.45C87 79.8 88.91 80.91 91.28 80.91H109.49C111.85 80.91 113.76 79.81 113.76 78.45C113.76 77.09 111.84 76 109.49 76" fill="#034C81"/>
</g>
</g>
<path d="M108.82 87H93.18C91.15 87 89.5 87.94 89.5 89.11V110.23C89.5 111.39 91.15 112.34 93.18 112.34H108.82C110.85 112.34 112.5 111.4 112.5 110.23V89.11C112.5 87.94 110.85 87 108.82 87Z" fill="white" stroke="#034C81" stroke-width="2" stroke-miterlimit="10"/>
<path d="M128.11 96.2803C133.17 96.2803 137.28 98.9303 137.28 102.18V171.34C137.28 174.59 133.17 177.23 128.11 177.23H74.16C69.1 177.23 64.98 174.59 64.98 171.34V102.18C64.98 98.9303 69.1 96.2803 74.16 96.2803H128.11Z" fill="#9E9E9E"/>
<path d="M62.99 171.34V191.26C62.99 191.57 63.03 191.86 63.09 192.16C63.11 192.24 63.13 192.33 63.15 192.41C63.21 192.63 63.28 192.85 63.37 193.07C63.4 193.14 63.42 193.22 63.46 193.29C63.59 193.57 63.73 193.84 63.91 194.1C63.94 194.15 63.98 194.19 64.01 194.23C64.16 194.45 64.33 194.66 64.52 194.87C64.59 194.94 64.65 195.01 64.72 195.09C64.91 195.28 65.11 195.47 65.33 195.65C65.38 195.7 65.43 195.74 65.49 195.79C65.76 196.01 66.06 196.21 66.37 196.41C66.45 196.46 66.53 196.5 66.61 196.55C66.86 196.7 67.12 196.84 67.4 196.97C67.5 197.02 67.6 197.07 67.71 197.12C68.04 197.27 68.38 197.41 68.74 197.54C68.77 197.54 68.79 197.56 68.82 197.57H68.83C69.27 197.73 69.74 197.85 70.21 197.97C70.27 197.98 70.32 198 70.38 198.02C70.44 198.03 70.51 198.04 70.57 198.06C70.87 198.13 71.18 198.18 71.49 198.23C71.57 198.24 71.65 198.26 71.74 198.28C71.77 198.28 71.8 198.28 71.83 198.28C72.19 198.33 72.56 198.37 72.93 198.39C72.96 198.39 73 198.39 73.03 198.4C73.03 198.4 73.03 198.4 73.04 198.4C73.42 198.42 73.8 198.44 74.19 198.44H128.14C128.14 198.44 128.23 198.44 128.27 198.44C128.37 198.44 128.46 198.43 128.56 198.43C128.86 198.43 129.16 198.41 129.46 198.39C129.51 198.39 129.56 198.39 129.6 198.39C129.69 198.39 129.77 198.37 129.86 198.36C130.18 198.33 130.49 198.29 130.8 198.24C130.88 198.23 130.96 198.22 131.03 198.21C131.08 198.21 131.12 198.19 131.16 198.18C131.68 198.09 132.18 197.97 132.67 197.83C132.7 197.83 132.74 197.82 132.77 197.81C132.83 197.79 132.88 197.77 132.94 197.75C133.34 197.63 133.72 197.49 134.09 197.34C134.15 197.31 134.22 197.29 134.29 197.26C134.7 197.09 135.08 196.9 135.45 196.69C135.53 196.64 135.62 196.59 135.7 196.55C136.04 196.35 136.37 196.13 136.67 195.9C136.69 195.88 136.71 195.87 136.74 195.85C137.05 195.61 137.33 195.35 137.6 195.08C137.63 195.05 137.67 195.02 137.7 194.99C137.75 194.93 137.8 194.87 137.85 194.81C137.91 194.74 137.98 194.67 138.04 194.59C138.14 194.47 138.24 194.34 138.33 194.21C138.38 194.14 138.43 194.07 138.48 194C138.5 193.98 138.52 193.95 138.53 193.93C138.56 193.88 138.58 193.83 138.6 193.78C138.72 193.58 138.82 193.38 138.91 193.17C138.93 193.12 138.96 193.08 138.98 193.04C139 192.99 139 192.95 139.02 192.9C139.08 192.74 139.13 192.57 139.17 192.4C139.19 192.33 139.21 192.27 139.23 192.21C139.23 192.18 139.23 192.15 139.24 192.12C139.27 191.95 139.29 191.78 139.3 191.6C139.3 191.53 139.32 191.46 139.32 191.38C139.32 191.34 139.32 191.31 139.32 191.27V171.35V102.19C139.32 98.22 134.32 95 128.15 95H74.2C68.03 95 63.02 98.22 63.02 102.19V171.35" fill="white"/>
<path d="M62.99 171.34V191.26C62.99 191.57 63.03 191.86 63.09 192.16C63.11 192.24 63.13 192.33 63.15 192.41C63.21 192.63 63.28 192.85 63.37 193.07C63.4 193.14 63.42 193.22 63.46 193.29C63.59 193.57 63.73 193.84 63.91 194.1C63.94 194.15 63.98 194.19 64.01 194.23C64.16 194.45 64.33 194.66 64.52 194.87C64.59 194.94 64.65 195.01 64.72 195.09C64.91 195.28 65.11 195.47 65.33 195.65C65.38 195.7 65.43 195.74 65.49 195.79C65.76 196.01 66.06 196.21 66.37 196.41C66.45 196.46 66.53 196.5 66.61 196.55C66.86 196.7 67.12 196.84 67.4 196.97C67.5 197.02 67.6 197.07 67.71 197.12C68.04 197.27 68.38 197.41 68.74 197.54C68.77 197.54 68.79 197.56 68.82 197.57H68.83C69.27 197.73 69.74 197.85 70.21 197.97C70.27 197.98 70.32 198 70.38 198.02C70.44 198.03 70.51 198.04 70.57 198.06C70.87 198.13 71.18 198.18 71.49 198.23C71.57 198.24 71.65 198.26 71.74 198.28C71.77 198.28 71.8 198.28 71.83 198.28C72.19 198.33 72.56 198.37 72.93 198.39C72.96 198.39 73 198.39 73.03 198.4C73.03 198.4 73.03 198.4 73.04 198.4C73.42 198.42 73.8 198.44 74.19 198.44H128.14C128.14 198.44 128.23 198.44 128.27 198.44C128.37 198.44 128.46 198.43 128.56 198.43C128.86 198.43 129.16 198.41 129.46 198.39C129.51 198.39 129.56 198.39 129.6 198.39C129.69 198.39 129.77 198.37 129.86 198.36C130.18 198.33 130.49 198.29 130.8 198.24C130.88 198.23 130.96 198.22 131.03 198.21C131.08 198.21 131.12 198.19 131.16 198.18C131.68 198.09 132.18 197.97 132.67 197.83C132.7 197.83 132.74 197.82 132.77 197.81C132.83 197.79 132.88 197.77 132.94 197.75C133.34 197.63 133.72 197.49 134.09 197.34C134.15 197.31 134.22 197.29 134.29 197.26C134.7 197.09 135.08 196.9 135.45 196.69C135.53 196.64 135.62 196.59 135.7 196.55C136.04 196.35 136.37 196.13 136.67 195.9C136.69 195.88 136.71 195.87 136.74 195.85C137.05 195.61 137.33 195.35 137.6 195.08C137.63 195.05 137.67 195.02 137.7 194.99C137.75 194.93 137.8 194.87 137.85 194.81C137.91 194.74 137.98 194.67 138.04 194.59C138.14 194.47 138.24 194.34 138.33 194.21C138.38 194.14 138.43 194.07 138.48 194C138.5 193.98 138.52 193.95 138.53 193.93C138.56 193.88 138.58 193.83 138.6 193.78C138.72 193.58 138.82 193.38 138.91 193.17C138.93 193.12 138.96 193.08 138.98 193.04C139 192.99 139 192.95 139.02 192.9C139.08 192.74 139.13 192.57 139.17 192.4C139.19 192.33 139.21 192.27 139.23 192.21C139.23 192.18 139.23 192.15 139.24 192.12C139.27 191.95 139.29 191.78 139.3 191.6C139.3 191.53 139.32 191.46 139.32 191.38C139.32 191.34 139.32 191.31 139.32 191.27V171.35V102.19C139.32 98.22 134.32 95 128.15 95H74.2C68.03 95 63.02 98.22 63.02 102.19V171.35" stroke="#034C81" stroke-width="2.4"/>
<path d="M128.11 95C134.28 95 139.28 98.22 139.28 102.19V171.35C139.28 175.32 134.28 178.54 128.11 178.54H74.16C67.99 178.54 62.98 175.32 62.98 171.35V102.19C62.98 98.22 67.98 95 74.16 95H128.11Z" fill="#E7F1F9" stroke="#034C81" stroke-width="2.4"/>
<path d="M97.7299 133.47C96.3399 133.47 95.4299 132.89 95.4299 131.86V129.65C95.4299 129.59 95.4699 129.55 95.5699 129.55H99.8599C99.9599 129.55 99.9999 129.58 99.9999 129.65V131.86C99.9999 132.89 99.0799 133.47 97.7199 133.47M104.68 133.28C103.4 133.28 102.53 132.71 102.53 131.77V129.65C102.53 129.59 102.57 129.55 102.67 129.55H106.72C106.81 129.55 106.86 129.58 106.86 129.65V131.77C106.86 132.71 105.99 133.28 104.67 133.28M109.15 127.72H93.1499C93.0099 127.72 92.9099 127.78 92.9099 127.88V131.66C92.9099 133.99 94.4799 135.31 97.7599 135.31C99.7699 135.31 101.08 134.55 101.47 133.89H101.51C102.07 134.57 103.14 135.13 105 135.13C107.65 135.13 109.39 134.07 109.39 131.82V127.88C109.39 127.78 109.29 127.72 109.15 127.72Z" fill="#034C81"/>
<path d="M98.7399 141.66C97.7499 141.66 97.1899 141.63 96.5799 141.5C95.6199 141.29 95.0599 140.8 95.0599 140.1C95.0599 139.4 95.6199 138.9 96.5799 138.68C97.1899 138.55 97.7499 138.52 98.7399 138.52C99.7299 138.52 100.27 138.55 100.9 138.68C101.87 138.89 102.43 139.4 102.43 140.1C102.43 140.8 101.87 141.29 100.9 141.5C100.27 141.63 99.7399 141.66 98.7399 141.66ZM98.7399 136.75C97.4499 136.75 96.6799 136.83 95.8499 137C93.8199 137.42 92.6299 138.57 92.6299 140.1C92.6299 141.63 93.8199 142.77 95.8499 143.18C96.6799 143.35 97.4499 143.43 98.7399 143.43C100.03 143.43 100.8 143.35 101.63 143.18C103.66 142.76 104.85 141.61 104.85 140.1C104.85 138.59 103.66 137.42 101.63 137C100.8 136.83 100.03 136.75 98.7399 136.75Z" fill="#034C81"/>
<path d="M93.0399 144.51C92.9599 144.51 92.8999 144.55 92.8999 144.66V146.2C92.8999 146.32 92.9699 146.39 93.1399 146.46L96.6999 148.02L93.1399 149.59C92.9699 149.67 92.8999 149.73 92.8999 149.84V151.4C92.8999 151.5 92.9599 151.54 93.0399 151.54C93.0699 151.54 93.1099 151.54 93.1399 151.52L98.9499 148.98L104.34 151.33C104.34 151.33 104.41 151.35 104.44 151.35C104.52 151.35 104.59 151.3 104.59 151.2V149.64C104.59 149.53 104.52 149.47 104.35 149.39L101.19 148.01L104.35 146.64C104.54 146.56 104.59 146.48 104.59 146.37V144.81C104.59 144.71 104.52 144.66 104.44 144.66C104.41 144.66 104.38 144.66 104.34 144.68L98.9499 147.03L93.1399 144.49C93.1399 144.49 93.0699 144.47 93.0399 144.47" fill="#034C81"/>
<path d="M101.15 158.72C97.3399 158.72 96.4399 158.61 95.9099 158.5C94.5199 158.2 93.8899 157.53 93.8899 156.6C93.8899 155.67 94.5199 154.99 95.9099 154.7C96.4399 154.59 97.3399 154.48 101.15 154.48C104.96 154.48 105.86 154.59 106.39 154.7C107.77 155 108.41 155.67 108.41 156.6C108.41 157.53 107.77 158.2 106.39 158.5C105.86 158.61 104.96 158.72 101.15 158.72ZM101.15 153.65C97.1999 153.65 96.1999 153.75 95.6199 153.88C93.6999 154.28 92.6599 155.27 92.6599 156.61C92.6599 157.95 93.6999 158.93 95.6199 159.33C96.1999 159.46 97.1899 159.56 101.15 159.56C105.11 159.56 106.1 159.46 106.68 159.33C108.6 158.93 109.64 157.94 109.64 156.61C109.64 155.28 108.6 154.28 106.68 153.88C106.1 153.75 105.11 153.65 101.15 153.65Z" fill="#034C81"/>
<path d="M105.74 161.11C105.63 161.11 105.55 161.16 105.54 161.24L105.34 161.72C105.31 161.83 105.39 161.89 105.54 161.91C107.26 162.1 108.37 162.77 108.37 163.93C108.37 165.09 107.08 165.95 105.29 165.95C104.17 165.95 103.13 165.61 102.06 165.08L94.0899 161.17C93.9899 161.12 93.9199 161.11 93.7799 161.11H93.1499C93.0099 161.11 92.9099 161.17 92.9099 161.27V166.65C92.9099 166.74 93.0099 166.81 93.1499 166.81H93.9199C94.0599 166.81 94.1599 166.75 94.1599 166.65V162.24H94.1899L101.26 165.73C102.62 166.4 103.83 166.81 105.29 166.81C107.81 166.81 109.63 165.67 109.63 163.96C109.63 162.25 107.81 161.29 105.8 161.12C105.78 161.12 105.76 161.12 105.74 161.12" fill="#034C81"/>
<path d="M97.7299 114.97C96.3399 114.97 95.4299 114.4 95.4299 113.37V111.15C95.4299 111.09 95.4699 111.06 95.5699 111.06H99.8599C99.9599 111.06 99.9999 111.09 99.9999 111.15V113.37C99.9999 114.4 99.0799 114.97 97.7199 114.97M104.68 114.79C103.4 114.79 102.53 114.21 102.53 113.28V111.16C102.53 111.1 102.57 111.07 102.67 111.07H106.72C106.81 111.07 106.86 111.1 106.86 111.16V113.28C106.86 114.21 105.99 114.79 104.67 114.79M109.15 109.22H93.1499C93.0099 109.22 92.9099 109.28 92.9099 109.38V113.17C92.9099 115.49 94.4799 116.81 97.7599 116.81C99.7699 116.81 101.08 116.05 101.47 115.39H101.51C102.07 116.06 103.14 116.62 105 116.62C107.65 116.62 109.39 115.56 109.39 113.32V109.37C109.39 109.28 109.29 109.21 109.15 109.21" fill="#034C81"/>
<path d="M104.35 118.66H93.1399C92.9999 118.66 92.8999 118.72 92.8999 118.82V120.25C92.8999 120.34 92.9999 120.41 93.1399 120.41H104.35C104.49 120.41 104.59 120.35 104.59 120.25V118.82C104.59 118.73 104.49 118.66 104.35 118.66ZM109.15 118.66H107.04C106.9 118.66 106.8 118.72 106.8 118.82V120.25C106.8 120.34 106.9 120.41 107.04 120.41H109.15C109.29 120.41 109.39 120.35 109.39 120.25V118.82C109.39 118.73 109.29 118.66 109.15 118.66Z" fill="#034C81"/>
<path d="M104.35 122.04H102.72C102.58 122.04 102.48 122.1 102.48 122.2V122.7C102.48 122.76 102.44 122.79 102.34 122.79H96.18C93.89 122.79 92.76 123.36 92.76 124.88V125.63C92.76 125.72 92.85 125.79 93 125.79H94.93C95.07 125.79 95.17 125.73 95.17 125.63V125.24C95.17 124.75 95.44 124.53 96.26 124.53H102.33C102.43 124.53 102.47 124.56 102.47 124.63V125.63C102.47 125.72 102.57 125.79 102.71 125.79H104.34C104.48 125.79 104.58 125.73 104.58 125.63V124.63C104.58 124.57 104.63 124.53 104.72 124.53H107.92C108.07 124.53 108.16 124.47 108.16 124.37V122.94C108.16 122.85 108.07 122.78 107.92 122.78H104.72C104.62 122.78 104.58 122.75 104.58 122.69V122.19C104.58 122.1 104.48 122.03 104.34 122.03" fill="#034C81"/>
<path d="M102.292 17.0583C101.549 16.7462 100.711 16.7462 99.9682 17.0583L49.8282 38.1182C48.7145 38.586 47.99 39.6761 47.99 40.8841V52.401C47.99 53.8306 49.4464 54.7986 50.7645 54.245L98.4192 34.2289C100.153 33.5006 102.107 33.5006 103.841 34.2289L151.495 54.245C152.814 54.7986 154.27 53.8306 154.27 52.401V40.8841C154.27 39.6761 153.545 38.586 152.432 38.1182L102.292 17.0583Z" fill="#39B54A"/>
</g>
<defs>
<linearGradient id="paint0_linear_5672_4847" x1="104" y1="0" x2="104" y2="117" gradientUnits="userSpaceOnUse">
<stop stop-color="white" stop-opacity="0"/>
<stop offset="1" stop-color="white"/>
</linearGradient>
<clipPath id="clip0_5672_4847">
<rect width="200" height="200" fill="white"/>
</clipPath>
</defs>
</svg>
