<svg width="70" height="70" viewBox="0 0 70 70" fill="none" xmlns="http://www.w3.org/2000/svg">
<g clip-path="url(#clip0_5173_17345)">
<path d="M69.0001 50.8272V43.0459C69.0001 43.1469 68.9894 43.2425 68.9788 43.3381C68.9682 43.4337 68.9735 43.5346 68.9576 43.6302C68.9469 43.6993 68.9257 43.7683 68.9151 43.8374C68.8885 43.9595 68.8673 44.087 68.8301 44.2092C68.8142 44.2623 68.7876 44.3154 68.7717 44.3738C68.7185 44.5225 68.6601 44.6713 68.5911 44.82C68.538 44.9315 68.4795 45.0377 68.4158 45.144C68.3892 45.1918 68.3627 45.2396 68.3361 45.2821C68.2352 45.4414 68.1237 45.5954 68.0015 45.7442C67.9856 45.7601 67.9696 45.776 67.9537 45.7973C67.8475 45.9248 67.7306 46.0469 67.6031 46.1691C67.5607 46.2116 67.5128 46.2541 67.465 46.2912C67.3588 46.3868 67.242 46.4825 67.1251 46.5727C67.0773 46.6099 67.0295 46.6471 66.9764 46.6843C66.8064 46.8065 66.6311 46.9233 66.4453 47.0295L42.9102 60.3719C42.7615 60.4569 42.6128 60.5312 42.4588 60.6003C42.3738 60.6375 42.2888 60.6746 42.2091 60.7065C42.1188 60.7437 42.0285 60.7809 41.9329 60.818C41.848 60.8499 41.763 60.8765 41.6727 60.903C41.5877 60.9296 41.4974 60.9561 41.4124 60.9827C41.1787 61.0464 40.9397 61.1049 40.6954 61.142C40.6423 61.1527 40.5945 61.1527 40.5413 61.1633C40.3714 61.1898 40.1961 61.2111 40.0261 61.2217C39.9518 61.227 39.8774 61.2323 39.8031 61.2323C39.6543 61.2376 39.5056 61.243 39.3622 61.2376C39.2878 61.2376 39.2188 61.2376 39.1444 61.2376C38.9585 61.227 38.7779 61.2164 38.592 61.1898C38.5602 61.1898 38.523 61.1845 38.4911 61.1792C38.2627 61.1473 38.0343 61.1049 37.8113 61.0517C37.7581 61.0411 37.705 61.0252 37.6519 61.0093C37.397 60.9455 37.1473 60.8658 36.9083 60.7755C36.8924 60.7702 36.8764 60.7649 36.8605 60.7596C36.664 60.6799 36.4728 60.595 36.2869 60.4994C36.2338 60.4728 36.1806 60.4409 36.1275 60.4091C35.9947 60.3347 35.8673 60.2603 35.7398 60.1754C35.6814 60.1382 35.6229 60.0957 35.5645 60.0532C35.4477 59.9682 35.3308 59.8779 35.2193 59.7823C35.1715 59.7398 35.1184 59.7026 35.0706 59.6601C34.9165 59.522 34.7731 59.3786 34.635 59.2193L2.05994 21.6408C1.35352 20.8282 1.01358 19.8934 1.00296 18.9639V26.7504C1.01358 27.6799 1.35352 28.6148 2.05994 29.4274L34.6881 67.0112C34.8209 67.1652 34.9696 67.3086 35.1237 67.4467C35.1715 67.4892 35.2193 67.5317 35.2724 67.5689C35.3839 67.6645 35.4955 67.7495 35.6176 67.8345C35.6761 67.8769 35.7345 67.9141 35.7929 67.9566C35.9204 68.0363 36.0479 68.116 36.1806 68.1903C36.2338 68.2222 36.2869 68.2487 36.34 68.2806C36.5259 68.3762 36.7171 68.4665 36.9136 68.5409C36.9136 68.5409 36.9189 68.5409 36.9242 68.5409C36.9349 68.5409 36.9508 68.5462 36.9614 68.5515C37.2004 68.6471 37.4501 68.7215 37.705 68.7852C37.7369 68.7905 37.7635 68.8064 37.7953 68.8118C37.8166 68.8171 37.8431 68.8171 37.8644 68.8224C38.0875 68.8755 38.3105 68.918 38.5442 68.9499C38.5442 68.9499 38.5549 68.9499 38.5602 68.9499C38.5867 68.9499 38.6186 68.9499 38.6452 68.9552C38.8257 68.9764 39.0117 68.9924 39.1922 69.003C39.2188 69.003 39.2454 69.0083 39.2719 69.0083C39.3197 69.0083 39.3675 69.0083 39.41 69.0083C39.5587 69.0083 39.7021 69.0083 39.8509 69.003C39.8933 69.003 39.9358 69.003 39.9783 69.003C40.0102 69.003 40.0421 68.9923 40.0739 68.9923C40.2439 68.9817 40.4139 68.9605 40.5838 68.9339C40.6263 68.9286 40.6688 68.9286 40.706 68.918C40.7166 68.918 40.7272 68.918 40.7379 68.9127C40.9769 68.8702 41.2159 68.8171 41.4549 68.7533C41.4762 68.748 41.4974 68.7427 41.5187 68.7374C41.5824 68.7162 41.6514 68.6949 41.7152 68.6737C41.8002 68.6471 41.8851 68.6205 41.9701 68.5887C42.0657 68.5568 42.156 68.5143 42.2463 68.4771C42.3313 68.44 42.411 68.4081 42.496 68.3709C42.5172 68.3603 42.5438 68.3497 42.565 68.339C42.6925 68.2753 42.82 68.2116 42.9474 68.1425L66.4453 54.8002C66.6365 54.6939 66.8117 54.5771 66.9764 54.4549C67.0295 54.4178 67.0773 54.3806 67.1251 54.3434C67.242 54.2531 67.3588 54.1575 67.465 54.0619C67.5128 54.0194 67.5553 53.9822 67.6031 53.9397C67.7253 53.8176 67.8422 53.6954 67.9537 53.5679C67.9696 53.552 67.9856 53.536 68.0015 53.5148C68.0015 53.5148 68.0068 53.5095 68.0121 53.5042C68.129 53.3608 68.2352 53.2067 68.3361 53.0527C68.3627 53.0049 68.3892 52.9571 68.4158 52.9146C68.4636 52.8349 68.5167 52.75 68.5592 52.6703C68.5698 52.6437 68.5805 52.6172 68.5911 52.5959C68.6601 52.4525 68.7185 52.3038 68.7717 52.1498C68.7876 52.1073 68.8088 52.0648 68.8248 52.017C68.8248 52.0064 68.8248 51.9957 68.8301 51.9851C68.8673 51.8629 68.8885 51.7408 68.9151 51.6133C68.9257 51.5496 68.9469 51.4911 68.9576 51.4274C68.9576 51.4221 68.9576 51.4168 68.9576 51.4062C68.9735 51.3106 68.9735 51.2096 68.9788 51.114C68.9841 51.029 69.0001 50.9441 69.0001 50.8538C69.0001 50.8431 69.0001 50.8325 69.0001 50.8166V50.8272Z" fill="white" stroke="#034C81" stroke-width="1.2"/>
<path d="M13.4137 3.2417C13.6528 3.11284 13.8718 3.1358 14.0846 3.23193C14.3124 3.33486 14.5041 3.51209 14.6051 3.62744V3.62842L23.067 13.3843L21.6471 14.189L21.1149 14.4897L21.5153 14.9517L23.0592 16.7319L15.2809 21.1401C15.2452 21.0983 15.2058 21.0528 15.1637 21.0034C14.918 20.7154 14.5659 20.3022 14.1403 19.8032C13.2889 18.805 12.1435 17.4611 10.9674 16.0815C8.61424 13.3212 6.1409 10.418 5.651 9.83545C5.05232 9.12381 5.2909 7.87526 6.3092 7.25439L6.31116 7.25342C6.94752 6.86226 11.6237 4.2138 13.4137 3.2417Z" stroke="#034C81"/>
<path d="M27.0928 1.63256C29.7857 0.102862 33.4824 0.618072 35.3468 2.77452L67.9378 40.3636C69.8074 42.5201 69.1435 45.5051 66.4506 47.0295L42.9156 60.3718C40.2227 61.9015 36.5206 61.3863 34.651 59.2298L2.05994 21.6408C0.190308 19.4843 0.85955 16.4993 3.55245 14.9749L27.0928 1.63256Z" fill="#E7F1F9" stroke="#034C81" stroke-width="1.2"/>
<path d="M23.4598 19.8721C22.8755 20.2014 22.2275 20.1164 21.7601 19.5799L20.7509 18.4167C20.7244 18.3849 20.7297 18.3583 20.7669 18.3317L22.5728 17.3066C22.6152 17.2854 22.6471 17.2907 22.6737 17.3226L23.6828 18.4858C24.1503 19.0275 24.0281 19.5481 23.4545 19.8721M26.3014 18.114C25.7649 18.4167 25.1329 18.3211 24.7133 17.8378L23.7466 16.7277C23.72 16.6958 23.7253 16.6693 23.7625 16.6427L25.4675 15.676C25.5047 15.6548 25.5418 15.6601 25.5684 15.692L26.5351 16.802C26.96 17.2907 26.8538 17.8006 26.3014 18.114ZM25.6481 14.1357L18.9185 17.9493C18.8547 17.9865 18.8441 18.0396 18.8866 18.0874L20.6075 20.0739C21.6592 21.2902 22.9233 21.6089 24.3043 20.8281C25.1488 20.3501 25.3559 19.6384 25.2179 19.2028L25.2391 19.1922C25.7809 19.41 26.482 19.4471 27.2681 19.0063C28.3835 18.3742 28.6331 17.4022 27.6133 16.2284L25.8234 14.1623C25.7809 14.1145 25.7118 14.1038 25.6481 14.141" fill="#034C81"/>
<path d="M27.916 20.2226L23.2048 22.8943C23.141 22.9315 23.1304 22.9846 23.1729 23.0324L23.8262 23.7866C23.8687 23.8344 23.9324 23.845 24.0015 23.8078L28.7127 21.1362C28.7712 21.1043 28.7871 21.0459 28.7446 20.9981L28.0913 20.2439C28.0488 20.1961 27.9797 20.1854 27.916 20.2173M29.9344 19.0754L29.0473 19.5799C28.9836 19.6171 28.973 19.6702 29.0155 19.718L29.6688 20.4723C29.7113 20.5201 29.775 20.5307 29.8441 20.4935L30.7311 19.9889C30.7895 19.9571 30.8054 19.8986 30.7629 19.8508L30.1096 19.0966C30.0671 19.0488 29.9981 19.0382 29.9344 19.07" fill="#034C81"/>
<path d="M29.4564 21.9966L28.7712 22.3844C28.7128 22.4162 28.6968 22.4747 28.7393 22.5225L28.9677 22.788C28.9943 22.8199 28.989 22.8465 28.9518 22.873L26.3598 24.3443C25.4037 24.8861 25.1807 25.4597 25.8712 26.2564L26.2111 26.6495C26.2536 26.6973 26.3226 26.7079 26.3864 26.6707L27.2043 26.2086C27.2628 26.1767 27.2787 26.1183 27.2362 26.0705L27.0609 25.8687C26.8378 25.6137 26.8591 25.4385 27.199 25.2419L29.7485 23.7972C29.791 23.776 29.8229 23.776 29.8494 23.8131L30.3009 24.3337C30.3434 24.3815 30.4124 24.3921 30.4762 24.3602L31.1613 23.9725C31.2198 23.9406 31.2357 23.8822 31.1932 23.8344L30.7417 23.3139C30.7152 23.282 30.7205 23.2554 30.7577 23.2289L32.1015 22.4694C32.1652 22.4322 32.1758 22.3791 32.1333 22.3313L31.48 21.577C31.4375 21.5292 31.3738 21.5186 31.3048 21.5505L29.961 22.31C29.9185 22.3313 29.8866 22.3259 29.86 22.2941L29.6317 22.0285C29.5892 21.9807 29.5201 21.9701 29.4564 22.0073" fill="#034C81"/>
<path d="M31.8624 29.5654C31.2782 29.8948 30.6302 29.8098 30.1628 29.2733L29.1589 28.1154C29.1323 28.0836 29.1376 28.057 29.1748 28.0304L30.9807 27.0053C31.0232 26.9841 31.0551 26.9841 31.0816 27.0213L32.0855 28.1792C32.5529 28.7209 32.4307 29.2414 31.8571 29.5654M34.704 27.8074C34.1676 28.1101 33.5355 28.0145 33.1106 27.5259L32.1492 26.4158C32.1227 26.3839 32.128 26.3573 32.1652 26.3308L33.8701 25.3641C33.9073 25.3428 33.9445 25.3428 33.9711 25.38L34.9324 26.4901C35.3573 26.9788 35.2564 27.494 34.6987 27.8074M34.0507 23.8291L27.3211 27.6427C27.2574 27.6799 27.2468 27.733 27.2893 27.7808L29.0102 29.762C30.0671 30.9783 31.3313 31.297 32.7069 30.5162C33.5515 30.0382 33.7586 29.3264 33.6205 28.8909L33.6417 28.8803C34.1835 29.098 34.8846 29.1352 35.6707 28.6944C36.7861 28.0623 37.0358 27.0903 36.016 25.9112L34.226 23.845C34.1835 23.7919 34.1145 23.7866 34.0507 23.8238" fill="#034C81"/>
<path d="M36.0107 33.6128C35.5964 33.8465 35.3414 33.9633 35.0334 34.0483C34.5288 34.1652 34.072 34.043 33.7533 33.6765C33.4346 33.31 33.4453 32.917 33.7533 32.5717C33.9552 32.3593 34.1729 32.2105 34.5925 31.9768C35.0121 31.7431 35.2512 31.6263 35.5698 31.5413C36.0797 31.4244 36.5418 31.5519 36.8552 31.9184C37.1686 32.2849 37.158 32.6726 36.8552 33.0179C36.6481 33.2303 36.4356 33.3791 36.016 33.6128M33.7799 31.042C33.2381 31.3501 32.946 31.5732 32.6804 31.86C32.0165 32.5664 32.0377 33.4534 32.7335 34.2554C33.4293 35.0575 34.4438 35.3708 35.4902 35.1053C35.9151 34.9937 36.2763 34.8556 36.818 34.5476C37.3598 34.2395 37.6466 34.0111 37.9175 33.7296C38.5814 33.0232 38.5549 32.1362 37.8697 31.3448C37.1845 30.5534 36.1541 30.2241 35.1077 30.4896C34.6828 30.5959 34.3217 30.7393 33.7799 31.0473" fill="#034C81"/>
<path d="M34.9059 36.465C34.8741 36.4862 34.8687 36.5234 34.9166 36.5765L35.6177 37.3839C35.6708 37.4476 35.7345 37.4636 35.8407 37.4636L38.0503 37.4317V37.4423L37.2642 39.1101C37.227 39.1898 37.227 39.2429 37.2748 39.296L37.9866 40.114C38.0291 40.1671 38.0769 40.1724 38.1087 40.1565C38.1247 40.1511 38.1353 40.1352 38.1459 40.1193L39.4366 37.3998L42.7722 37.3467C42.7722 37.3467 42.8094 37.3414 42.8253 37.3361C42.8572 37.3148 42.8678 37.2777 42.82 37.2245L42.1136 36.4066C42.0658 36.3482 42.002 36.3375 41.8958 36.3322L39.9465 36.3694V36.3588L40.6476 34.8928C40.6954 34.8078 40.6795 34.7547 40.6317 34.6963L39.9199 33.8783C39.8774 33.8252 39.8296 33.8199 39.7925 33.8358C39.7765 33.8412 39.7659 33.8571 39.7606 33.873L38.5602 36.3906L34.959 36.4438C34.959 36.4438 34.9219 36.4491 34.9059 36.4597" fill="#034C81"/>
<path d="M44.7693 41.9783C43.1705 42.8866 42.7403 43.0406 42.4641 43.1096C41.7471 43.2849 41.1787 43.0831 40.7538 42.5944C40.3289 42.1058 40.2864 41.6012 40.7379 41.1178C40.9132 40.9319 41.2425 40.6611 42.8412 39.7528C44.44 38.8445 44.8702 38.6905 45.1464 38.6215C45.8581 38.4462 46.4318 38.648 46.8567 39.1367C47.2816 39.6253 47.3134 40.1299 46.8726 40.6133C46.6973 40.7992 46.368 41.07 44.7693 41.9783ZM42.4641 39.3173C40.8016 40.2574 40.4298 40.5495 40.2439 40.7567C39.6225 41.4259 39.6278 42.1907 40.2439 42.8919C40.8494 43.593 41.7364 43.8585 42.7244 43.6142C43.0218 43.5452 43.4945 43.3646 45.157 42.4191C46.8195 41.479 47.1913 41.1816 47.3719 40.9797C47.9933 40.3105 47.988 39.5457 47.3772 38.8445C46.7664 38.1434 45.8794 37.8725 44.8914 38.1222C44.594 38.1912 44.1266 38.3771 42.4641 39.3173Z" fill="#034C81"/>
<path d="M47.7915 42.1323C47.7437 42.1589 47.733 42.2067 47.7649 42.2492L47.8977 42.5466C47.9349 42.6104 47.9933 42.6263 48.0677 42.5997C48.875 42.2864 49.6505 42.3713 50.1816 42.9822C50.7128 43.593 50.5587 44.3525 49.8045 44.7774C49.3371 45.043 48.7422 45.112 48.0464 45.0908L42.9156 44.9421C42.8518 44.9421 42.8146 44.9474 42.7562 44.9846L42.4906 45.1333C42.4269 45.1705 42.4163 45.2236 42.4588 45.2714L44.902 48.0918C44.9445 48.1396 45.0083 48.1502 45.0773 48.1183L45.4013 47.9324C45.4597 47.9006 45.4757 47.8421 45.4332 47.7943L43.4255 45.4838H43.4361L47.9986 45.6219C48.875 45.6485 49.5708 45.5741 50.1816 45.2236C51.2439 44.6234 51.4882 43.593 50.7128 42.6953C49.9373 41.7977 48.7369 41.734 47.8074 42.1217C47.7968 42.1217 47.7915 42.127 47.7862 42.1323" fill="#034C81"/>
</g>
<defs>
<clipPath id="clip0_5173_17345">
<rect width="70" height="70" fill="white"/>
</clipPath>
</defs>
</svg>
