<svg width="75" height="62" viewBox="0 0 75 62" fill="none" xmlns="http://www.w3.org/2000/svg">
<path d="M37.0166 17C37.0067 17.2582 37 17.5177 37 17.7783C37 28.824 45.9543 37.7783 57 37.7783C57.1672 37.7783 57.3338 37.7756 57.5 37.7715V55.333C57.5 58.8614 54.6397 61.7225 51.1113 61.7227H6.38867C2.86029 61.7225 0 58.8614 0 55.333V23.3887C0.000117046 19.8604 2.86036 17.0001 6.38867 17H37.0166Z" fill="#E7F1F9"/>
<path d="M37.0166 17C37.0067 17.2582 37 17.5177 37 17.7783C37 18.0199 37.0062 18.2605 37.0146 18.5H6.38867C3.68889 18.5001 1.50029 20.6889 1.5 23.3887V26.6816L25.6221 42.7637C27.5161 44.0263 29.9839 44.0263 31.8779 42.7637L45.168 33.9023C45.603 34.2221 46.0509 34.5252 46.5117 34.8096L32.71 44.0117C30.3121 45.6102 27.1879 45.6102 24.79 44.0117L1.5 28.4844V55.333C1.5 58.033 3.68871 60.2225 6.38867 60.2227H51.1113C53.8113 60.2225 56 58.033 56 55.333V37.7529C56.3313 37.7692 56.6647 37.7783 57 37.7783C57.1672 37.7783 57.3338 37.7756 57.5 37.7715V55.333C57.5 58.7514 54.8153 61.543 51.4395 61.7139L51.1113 61.7227H6.38867L6.06055 61.7139C2.68466 61.543 0 58.7514 0 55.333V23.3887C0.000292213 19.8605 2.86047 17.0001 6.38867 17H37.0166Z" fill="#034C81"/>
<path fill-rule="evenodd" clip-rule="evenodd" d="M57 36C66.9411 36 75 27.9411 75 18C75 8.05888 66.9411 0 57 0C47.0589 0 39 8.05888 39 18C39 27.9411 47.0589 36 57 36ZM65.341 15.091C66.2197 14.2123 66.2197 12.7877 65.341 11.909C64.4623 11.0303 63.0377 11.0303 62.159 11.909L54.75 19.318L51.841 16.409C50.9623 15.5303 49.5377 15.5303 48.659 16.409C47.7803 17.2877 47.7803 18.7123 48.659 19.591L53.159 24.091C54.0377 24.9697 55.4623 24.9697 56.341 24.091L65.341 15.091Z" fill="#034C81"/>
</svg>
