<svg width="216" height="237" viewBox="0 0 216 237" fill="none" xmlns="http://www.w3.org/2000/svg">
<g clip-path="url(#clip0_7814_11676)">
<path d="M108 237C102.441 237 96.8824 235.529 91.8908 232.699L16.3361 189.577C6.2395 183.805 0 173.053 0 161.395V75.4914C0 63.947 6.2395 53.0817 16.3361 47.3095L91.7773 4.30091C101.761 -1.35812 114.126 -1.35812 124.109 4.30091L199.55 47.4227C209.647 53.1949 215.887 63.947 215.887 75.6046V161.509C215.887 173.053 209.647 183.918 199.55 189.691L124.109 232.812C119.118 235.642 113.559 237.113 108 237.113V237ZM108 15.8453C105.164 15.8453 102.328 16.5244 99.7185 17.9958L24.2773 61.1175C19.1723 64.0602 15.8824 69.6061 15.8824 75.4914V161.395C15.8824 167.281 19.0588 172.827 24.2773 175.769L99.7185 218.891C104.824 221.834 111.176 221.834 116.282 218.891L191.723 175.769C196.828 172.827 200.118 167.281 200.118 161.395V75.4914C200.118 69.6061 196.941 64.0602 191.723 61.1175L116.282 17.9958C113.786 16.5244 110.836 15.8453 108 15.8453Z" fill="#1988C6"/>
<path d="M67.7269 115.558L66.7059 120.877H72.605V125.518H65.7983L64.0966 134.799H59.105L60.9201 125.518H56.4958L54.7941 134.799H49.9159L51.6176 125.518H46.1722V120.877H52.5252L53.5462 115.558H47.7605V110.804H54.3403L56.042 101.523H61.0336L59.3319 110.804H63.8697L65.6848 101.523H70.563L68.7479 110.804H74.1933V115.558H67.8403H67.7269ZM57.1764 120.764H61.6008L62.6218 115.445H58.1974L57.1764 120.764Z" fill="#1988C6"/>
<path d="M122.634 73.002C130.802 73.002 137.723 74.0206 143.168 76.0578C148.046 77.6424 152.357 80.8114 155.42 84.9991C158.256 89.4131 159.731 94.5062 159.618 99.7126C159.618 103.108 159.05 106.503 157.802 109.672C156.555 112.728 154.739 115.445 152.471 117.708C150.088 120.198 147.366 122.235 144.302 123.933L170.622 163.207H142.941L123.769 130.384H117.529V163.207H93.1386V73.002H122.748H122.634ZM122.181 91.4504H117.302V112.049H121.84C125.13 112.162 128.307 111.37 131.029 109.559C133.412 107.862 134.66 104.919 134.66 100.731C134.773 98.128 133.639 95.5249 131.71 93.8272C129.781 92.1295 126.492 91.3372 122.067 91.3372L122.181 91.4504Z" fill="#1988C6"/>
</g>
<defs>
<clipPath id="clip0_7814_11676">
<rect width="216" height="237" fill="white"/>
</clipPath>
</defs>
</svg>
