<svg width="70" height="70" viewBox="0 0 70 70" fill="none" xmlns="http://www.w3.org/2000/svg">
<path fill-rule="evenodd" clip-rule="evenodd" d="M47.6637 26.4483V23.3893C47.6748 22.0371 47.1539 20.7625 46.2007 19.8038C45.2476 18.8451 43.9785 18.3186 42.6263 18.3186H9.1931C4.95922 18.3186 1.99994 20.297 1.99994 23.1288V58.3298C1.99994 59.8095 2.77578 61.2503 4.13904 62.2756C5.62977 63.4005 7.72454 63.999 10.2017 63.999H50.0578C52.8342 63.999 55.1007 61.7325 55.1007 58.9505V31.4913C55.1007 28.7093 52.8397 26.4483 50.0578 26.4483H9.1931C5.77939 26.4483 3.48512 25.0906 3.48512 23.1288C3.48512 21.167 5.83481 19.8038 9.1931 19.8038H42.6263C43.5795 19.8038 44.4717 20.1751 45.1478 20.8512C45.8183 21.5273 46.1896 22.425 46.1841 23.3782V26.4428H47.6637V26.4483Z" fill="#E7F1F9" stroke="#034C81" stroke-width="1.2" stroke-miterlimit="10"/>
<path d="M56 51.0204H46.0687C42.9725 51.0204 40.462 48.5099 40.462 45.4137C40.462 42.3175 42.9725 39.807 46.0687 39.807H56" fill="white"/>
<path d="M56 51.0204H46.0687C42.9725 51.0204 40.462 48.5099 40.462 45.4137C40.462 42.3175 42.9725 39.807 46.0687 39.807H56V51.0204Z" stroke="#034C81" stroke-miterlimit="10"/>
<path d="M48.077 43.7396C48.077 42.8584 47.3609 42.1422 46.4797 42.1422C45.5985 42.1422 44.8823 42.8584 44.8823 43.7396C44.8823 44.3758 45.255 44.9216 45.7901 45.1798V47.7755C45.7689 48.0204 45.9259 48.2387 46.1283 48.2387H46.8284C47.0308 48.2387 47.1878 48.0231 47.1639 47.7755V45.1798C47.7016 44.9216 48.0744 44.3758 48.0744 43.7396H48.077Z" fill="#034C81"/>
<path d="M31.0977 39.0529L24.5066 35.2787C23.8465 34.9006 23.0356 34.9006 22.3755 35.2787L15.7844 39.0529C15.1173 39.435 14.7057 40.1449 14.7057 40.9136V48.4322C14.7057 49.2011 15.1173 49.911 15.7844 50.2929L22.3755 54.0673C23.0356 54.4454 23.8465 54.4454 24.5066 54.0673L31.0977 50.2929C31.7648 49.911 32.1763 49.2011 32.1763 48.4322V40.9136C32.1763 40.1447 31.7648 39.4348 31.0977 39.0529ZM30.0989 47.331C30.0989 48.0387 29.7198 48.6919 29.1054 49.0426L24.4185 51.7193C23.8128 52.0653 23.0692 52.0653 22.4636 51.7193L17.7767 49.0426C17.1623 48.6917 16.7831 48.0384 16.7831 47.331V42.0148C16.7831 41.3071 17.1623 40.6539 17.7767 40.3031L22.4636 37.6264C23.0692 37.2805 23.8128 37.2805 24.4185 37.6264L29.1054 40.3031C29.7198 40.6541 30.0989 41.3073 30.0989 42.0148V47.331Z" fill="#034C81"/>
<path d="M59.6386 3.88C64.333 3.88019 68.1384 7.68661 68.1386 12.381C68.1384 17.0754 64.333 20.8808 59.6386 20.881C54.9442 20.8808 51.1378 17.0754 51.1376 12.381C51.1378 7.68661 54.9442 3.88019 59.6386 3.88ZM59.6386 5.13977C55.6397 5.13996 52.3976 8.38211 52.3974 12.381C52.3976 16.3799 55.6397 19.622 59.6386 19.6222C63.6375 19.622 66.8796 16.3799 66.8798 12.381C66.8796 8.38211 63.6375 5.13996 59.6386 5.13977ZM59.6386 8.60266C59.9863 8.60274 60.2684 8.8849 60.2685 9.23254V11.7511H62.787C63.1346 11.7512 63.4159 12.0334 63.416 12.381C63.4159 12.7286 63.1346 13.0107 62.787 13.0109H60.2685V15.5294C60.2683 15.877 59.9862 16.1583 59.6386 16.1583C59.291 16.1583 59.0089 15.877 59.0087 15.5294V13.0109H56.4902C56.1425 13.0108 55.8604 12.7286 55.8603 12.381C55.8604 12.0333 56.1425 11.7512 56.4902 11.7511H59.0087V9.23254C59.0088 8.8849 59.291 8.60274 59.6386 8.60266Z" fill="#034C81"/>
</svg>
