<svg width="512" height="512" viewBox="0 0 512 512" fill="none" xmlns="http://www.w3.org/2000/svg">
<path d="M512 0H0V512H512V0Z" fill="url(#paint0_linear_5245_19413)"/>
<path d="M396.243 153.059L275.517 83.9286C263.427 77.0039 248.573 77.0039 236.483 83.9286L115.757 153.059C103.538 160.059 96 173.062 96 187.141V324.855C96 338.938 103.538 351.941 115.757 358.937L236.483 428.071C248.573 434.996 263.427 434.996 275.517 428.071L396.243 358.937C408.462 351.941 416 338.938 416 324.855V187.141C416 173.058 408.462 160.055 396.243 153.059ZM377.95 304.686C377.95 317.647 371.004 329.612 359.752 336.036L273.904 385.064C262.81 391.401 249.19 391.401 238.096 385.064L152.248 336.036C140.996 329.608 134.05 317.643 134.05 304.686V207.31C134.05 194.349 140.996 182.384 152.248 175.959L238.096 126.932C249.19 120.595 262.81 120.595 273.904 126.932L359.752 175.959C371.004 182.388 377.95 194.353 377.95 207.31V304.686Z" fill="#1988C6"/>
<defs>
<linearGradient id="paint0_linear_5245_19413" x1="256" y1="0" x2="256" y2="512" gradientUnits="userSpaceOnUse">
<stop stop-color="white"/>
<stop offset="1" stop-color="#D9ECF8"/>
</linearGradient>
</defs>
</svg>
